<svg xmlns="http://www.w3.org/2000/svg" xml:space="preserve" style="enable-background:new 0 0 150 150" viewBox="0 0 150 150"><style>.st1{stroke:#020203;stroke-width:.2511;stroke-miterlimit:10}.st1,.st2{fill:#020203}</style><switch><g><circle id="Laag_2" cx="74.78" cy="75.06" r="74.06" style="fill:#fff"/><g id="Laag_9"><path d="M99.64 94.49c-1.16-.31-2.07-.56-2.79-1.65-.49-.75-.52-1.37-.41-2.06.01-.03.01-.07.02-.1v-.02c.04-.23.1-.46.16-.72.28-1.17.63-2.62-.42-4.23-.63-.98-1.49-1.8-2.41-2.32-1.31-.73-3.44-1.25-6.09.47-4.63 3-4.8 9.03-.44 15.75 2.54 3.92 5.7 6.18 8.84 6.56 1.82.22 3.64-.19 5.33-1.29 3.37-2.18 4.04-4.89 1.99-8.05-1.04-1.6-2.56-2.01-3.78-2.34zm.45 8.32c-3.34 2.16-7.56.38-10.75-4.55-3.58-5.52-3.68-10.13-.29-12.33 1.32-.86 2.48-.98 3.54-.39.58.32 1.12.86 1.54 1.5.44.69.34 1.23.08 2.31-.06.23-.11.49-.17.76 0 .01 0 .02-.01.03-.02.09-.03.17-.05.26-.78 4.08 1.52 8.25 1.62 8.43.2.36.55.58.93.62.25.03.52-.02.75-.15.6-.33.81-1.09.48-1.68-.01-.01-.3-.54-.62-1.37.63.29 1.27.47 1.84.62 1.16.31 1.84.52 2.35 1.3 1.32 2.02 1 3.19-1.24 4.64zM116.89 86.2c-4.9-5.51-10.71-6.71-14.81-3.07-3 2.67-3.25 5.45-.75 8.26 1.28 1.44 2.84 1.61 4.1 1.74 1.19.13 2.13.23 3 1.21.82.93.76 1.73.67 2.84-.1 1.2-.22 2.69 1.05 4.12.78.87 1.75 1.56 2.73 1.93.37.14.79.25 1.26.31 1.31.16 2.95-.15 4.69-1.7 4.13-3.67 3.38-9.66-1.94-15.64zm.31 13.79c-1.18 1.04-2.3 1.35-3.44.92-.62-.23-1.24-.68-1.75-1.25-.54-.61-.52-1.17-.43-2.27.04-.43.07-.91.05-1.43.33.39.5.67.52.71.2.36.55.58.93.62.25.03.51-.02.75-.15.6-.33.81-1.09.48-1.68-.09-.16-2.28-4-7.4-4.62-.26-.05-.51-.09-.75-.12-.15-.02-.3-.03-.44-.05-1.2-.13-1.9-.24-2.52-.93-1.59-1.79-1.45-2.99.54-4.77 2.97-2.64 7.41-1.52 11.31 2.87 4.36 4.92 5.17 9.46 2.15 12.15zM98.52 81.71c7.37-.18 12.05-3.84 11.91-9.32-.1-4.01-2.06-6-5.82-5.91-1.92.05-3.06 1.13-3.98 2-.87.83-1.56 1.48-2.86 1.51-1.24.03-1.81-.54-2.59-1.32-.85-.85-1.91-1.91-3.82-1.86-1.17.03-2.32.33-3.24.84-.34.19-.71.44-1.05.76-.97.9-1.79 2.35-1.74 4.68.13 5.52 5.18 8.82 13.19 8.62zM87.8 73.03c-.04-1.57.46-2.63 1.52-3.22.57-.32 1.32-.51 2.09-.53.82-.02 1.23.35 2.01 1.13.3.3.65.64 1.06.96-.51 0-.83-.05-.88-.06a1.237 1.237 0 1 0-.47 2.43c.18.04 4.53.84 8.31-2.66.2-.16.39-.33.57-.5.11-.1.22-.2.32-.3.88-.83 1.41-1.3 2.33-1.32 2.39-.06 3.22.82 3.29 3.5.1 3.98-3.63 6.64-9.5 6.78-6.57.16-10.55-2.16-10.65-6.21z" class="st1"/><path d="m80.28 70.97-.06-.16c-.35-.98-.7-1.99-1-3-1.05-3.58.49-4.49.67-4.58.04-.02 1.01-.52.54-1.76-.35-.92-1.57-1-1.58-1-2-.26-8.03-1.06-12.15 3.13-4.14 4.21-7.08 6.85-12.85 8.17-6.95 1.59-9.58 4.42-12.27 9.42-1.03 1.91-3.6 2.94-6.32 4.03-1.23.49-2.49 1-3.68 1.61-4.38 2.26-8.57 10.35-9.16 13.16-.08.4.01.81.25 1.14.24.33.62.53 1.02.56.46.04 4.44.4 6.93 1.39 1.53.61 3.25.92 5.12.92 4.43 0 8.8-1.74 11.4-4.55.97-1.04 2.28-1.46 3.94-1.99 1.82-.58 4.09-1.3 6.46-3.15l.45-.35-.24.51c-.85 1.79-2 3.58-3.02 5.15l-.02.03c-1.24 1.92-2.52 3.92-3.65 6.23-2.85 5.87-2.38 13-2.36 13.31.04.58.44 1.08 1 1.25.56.17 1.18-.04 1.52-.49.78-1.01 3.14-1.64 5.43-2.25 2.64-.7 5.34-1.42 7.31-2.94 3.46-2.68 3.75-5.01 3.98-6.87.16-1.34.27-2.22 1.58-3.28 5.18-4.2 7.64-8.61 6.92-12.41-.47-2.46 1.49-5.59 4.1-9.43 2.59-3.81 1.14-7.87-.26-11.8zm-15.22 2.06c1.01-.63 2.1-.98 3.09-.98h.26l-.07.18c-.69 1.74-1.41 3.54-2.29 4.78-.45.64-.91 1.31-1.45 2.12l-.05.08-.09-.02c-.72-.17-1.25-.53-1.58-1.05-.45-.71-.46-1.64-.03-2.63.42-.96 1.21-1.84 2.21-2.48zm-2.27-1.83c-2.9 2.28-3.89 5.91-2.29 8.44.55.87 1.37 1.56 2.39 1.98l.14.06-.08.13c-.88 1.52-1.61 2.93-2.22 4.32-2.83 4.85-5.51 6.55-7.27 7.4l-.01.01c-2.74 1.03-5.84.48-5.87.47-.75-.14-1.48.38-1.62 1.14-.07.4.04.82.31 1.15l.09.11-.12.08c-.42.3-.8.63-1.16 1.02-2.14 2.31-5.83 3.65-9.31 3.65-1.45 0-2.85-.23-4.1-.73-1.83-.72-4.17-1.14-5.82-1.36l-.17-.02.07-.16c1.3-3.12 4.37-8.15 7.13-9.58 1.07-.55 2.27-1.03 3.43-1.5 3.08-1.23 6.25-2.5 7.76-5.31 2.43-4.52 4.41-6.63 10.42-8 3.14-.72 5.73-1.84 8.15-3.53l.66-.47c1.76-1.31 3.38-2.86 5.42-4.94 1.19-1.21 2.75-1.99 4.64-2.33l.45-.08-.33.31c-1.49 1.4-2.72 3.24-3.88 5.81l-.04.1-.1-.02c-1.88-.37-3.96.09-5.87 1.29-.05.03-.8.56-.8.56zm15.42 9.98c-2.98 4.38-5.21 8.01-4.54 11.54.51 2.7-1.65 6.23-5.93 9.7-2.18 1.77-2.42 3.63-2.6 5.12-.2 1.63-.37 3.03-2.91 5-1.52 1.18-3.95 1.83-6.3 2.45-1.55.41-2.99.79-4.23 1.33l-.2.09.01-.22c.13-2.45.59-6.01 2.07-9.06 1.05-2.16 2.28-4.07 3.47-5.92l.03-.05c1.85-2.88 3.6-5.58 4.44-8.82 1.17-4.47 3.27-8.69 6.81-13.69 1.08-1.51 1.83-3.4 2.63-5.4 1.2-3.02 2.44-6.12 4.85-8.1l.23-.19-.01.3c-.04 1.01.11 2.14.47 3.35.34 1.16.75 2.3 1.11 3.31 1.48 4.12 2.3 6.77.6 9.26z" class="st2"/><path d="M71.9 91.59c-.17-.75-.93-1.23-1.69-1.06-.37.08-.68.3-.88.62-.2.32-.26.7-.18 1.06.79 3.46-1.67 5.02-3.25 5.41-.75.18-1.22.95-1.04 1.7.18.74.91 1.22 1.7 1.04 3.46-.84 6.4-4.12 5.34-8.77zM77.65 79.6c.5-1.82.2-3.74-.86-5.56-.39-.67-1.26-.89-1.93-.5-.67.39-.9 1.26-.5 1.93.68 1.16.88 2.3.58 3.39-.36 1.3-1.35 2.24-2.15 2.68-.68.37-.93 1.23-.55 1.92.25.45.72.73 1.24.73.24 0 .47-.06.68-.17 1.68-.95 2.99-2.6 3.49-4.42zM55.45 112.5c.26.28.6.44.98.45.1 0 .2.01.3.01 3.23 0 6.8-2.13 7.02-6.82.04-.77-.57-1.44-1.34-1.47h-.06c-.75 0-1.37.59-1.41 1.34-.16 3.34-2.92 4.17-4.39 4.13h-.07c-.33 0-.67.13-.92.36-.28.26-.45.62-.47.99-.03.37.11.73.36 1.01zM39.88 87.67c-1.27 0-2.61.32-3.87.91-3.68 1.74-5.54 5.57-4.14 8.54.91 1.94 2.96 3.09 5.48 3.09 1.25 0 2.55-.3 3.75-.87 3.81-1.8 5.59-5.47 4.14-8.54-.93-1.96-2.93-3.13-5.36-3.13zm.01 9.12c-.82.39-1.7.6-2.54.6-1.4 0-2.49-.55-2.93-1.48-.72-1.54.56-3.73 2.8-4.79.89-.42 1.81-.64 2.66-.64.78 0 2.19.2 2.81 1.52.88 1.87-.74 3.82-2.8 4.79zM45.15 84.3c-.41 1.88-.01 3.7 1.1 4.99 1.04 1.21 2.58 1.88 4.35 1.88 1.9 0 3.93-.79 5.55-2.18 1.62-1.39 2.7-3.14 3.04-4.94.34-1.79-.09-3.49-1.2-4.79-1.07-1.26-2.61-1.95-4.34-1.95-1.89 0-3.86.8-5.56 2.25-1.51 1.3-2.56 2.98-2.94 4.74zm2.75.6c.25-1.15.99-2.31 2.02-3.19 1.17-1 2.53-1.57 3.73-1.57.92 0 1.66.32 2.2.96 1.44 1.69.32 4.18-1.53 5.76-1.12.96-2.47 1.5-3.72 1.5-.66 0-1.58-.15-2.21-.89-.72-.85-.61-1.97-.49-2.57zM106.74 44.51c-.95-4.19-3.42-7.69-7.33-10.43.05-.08.11-.14.16-.22.37-.55.24-1.29-.31-1.67-.25-.17-5.89-3.98-13.67 2.39-1.07-1.02-3.12-2.49-6.06-2.58-.67-.02-1.23.5-1.25 1.17-.02.67.51 1.23 1.17 1.25 2.08.07 3.54 1.07 4.35 1.79-7.09 7.09-3.99 13.15-3.85 13.42.15.28.41.5.72.59.06.02.12.03.17.04.26.04.52-.01.75-.13.07-.04.13-.08.21-.12 2.27 4.25 5.46 7.14 9.52 8.54 1.06.37 2.11.61 3.12.76 4.43.64 8.18-.55 9.46-1.19.42-.21.78-.54 1.04-.94.96-1.5 3.15-6.69 1.8-12.67zm-20.43-7.35c4.03-3.64 7.3-4.04 9.33-3.75.41.06.77.15 1.07.24-1.94 2.32-3.53 2.55-4.02 2.56a1.402 1.402 0 0 0-.99 2.36c2.02 2.21 1.39 4.84 1.02 5.89-1.06.25-3.7.58-5.64-1.67-.37-.43-.95-.6-1.48-.44-.52.16-.9.61-.98 1.15-.08.63-.54 2.13-2.93 3.75-.35-1.9-.22-5.71 4.62-10.09zm5.81 19.1c-3.52-1.22-6.3-3.78-8.29-7.59 1.4-1.1 2.22-2.2 2.67-3.13 3.38 2.57 7.36 1.11 7.55 1.04.28-.11.52-.32.65-.59.09-.18 1.96-4.02-.21-7.7.97-.35 2.14-1.04 3.38-2.33 3.49 2.4 5.68 5.44 6.5 9.08.56 2.47.39 4.9-.03 6.86a17.1 17.1 0 0 0-3.09-5.37c-.43-.51-1.2-.57-1.7-.13s-.57 1.2-.13 1.7c2.26 2.64 3.03 5.55 3.29 7.04-1.07-.21-3.24-.81-5.88-2.48-.56-.36-1.31-.19-1.67.38-.36.56-.19 1.31.38 1.67 1.61 1.02 3.06 1.67 4.27 2.11-2.1.36-4.92.4-7.69-.56zM74.62 38.19c-2.12-3.93-9.83-4.79-16.16-1.81-10.91 5.13-14.06 18.53-14.19 19.1-.01.04-.01.08-.01.11s-.01.05-.01.08c-.01.14 0 .27.04.4.01.02.01.04.02.06.04.13.1.26.19.37 0 0 .01 0 .01.01 0 0 0 .01.01.01.15.19 2.39 2.78 6.98 3.45 3.24.47 7.66-.01 13.35-2.98 12.72-6.62 10.67-16.02 10.22-17.58-.1-.47-.27-.88-.45-1.22zm-15.14.38c2.99-1.41 6.25-1.78 8.79-1.41 2.04.3 3.62 1.08 4.22 2.18 1 1.86-.73 5.57-8.62 10.42h-.01c-.07.05-7.04 4.31-16.81 4.75 1.13-3.53 4.62-12.27 12.43-15.94zm4.25 16.28c-7.26 3.78-12.03 3.1-14.7 1.93 9.34-.86 15.77-4.76 16.11-4.97 3.45-2.12 5.79-4.04 7.33-5.74-.98 2.74-3.35 5.98-8.74 8.78z" class="st2"/><path d="M66.01 43.97c1.84-1.25 3.52-1.35 3.57-1.35.66-.02 1.19-.58 1.17-1.24a1.2 1.2 0 0 0-1.24-1.17c-.1 0-2.39.09-4.86 1.77-.55.38-.69 1.13-.32 1.68.2.29.5.47.82.52.29.03.6-.03.86-.21zM61.04 46.64c-.09.01-2.23.36-3.82 1.69a1.206 1.206 0 0 0 .6 2.12c.33.05.68-.04.95-.27 1.06-.89 2.61-1.15 2.64-1.15.66-.1 1.11-.72 1.01-1.38-.11-.66-.72-1.12-1.38-1.01zM62.15 39.49c-.1.01-2.43.33-4.45 1.99a1.207 1.207 0 0 0 .59 2.13c.32.05.67-.04.94-.26 1.46-1.2 3.21-1.45 3.24-1.46a1.211 1.211 0 0 0-.32-2.4zM54.08 47.28c-.14.05-1.4.49-2.38 1.47-.47.47-.47 1.24.01 1.71a1.212 1.212 0 0 0 1.71 0c.58-.58 1.41-.88 1.43-.88.63-.21.97-.9.76-1.53-.22-.63-.9-.97-1.53-.77z" class="st2"/></g></g></switch></svg>