<svg xmlns="http://www.w3.org/2000/svg" id="Laag_2" data-name="Laag 2" viewBox="0 0 148.13 148.13"><defs><style>.cls-2{fill:#1d1d1b}</style></defs><circle cx="74.06" cy="74.06" r="74.06" style="fill:none"/><path d="M124.73 55.52h-2.78v39.36a9.41 9.41 0 0 1-9.43 9.4c-6.37 0-19.4 1.78-27.51 8.53v-.22a5.38 5.38 0 0 0-.34-1.85c8.57-7.44 21-8.56 27.79-8.56a7.33 7.33 0 0 0 5.18-2.13 7.24 7.24 0 0 0 2.15-5.17V45.74a1.58 1.58 0 1 0-3.15 0v49.14a4.12 4.12 0 0 1-1.22 2.93 4.18 4.18 0 0 1-3 1.21c-7.14 0-20.34 1.22-29.67 9.19a5.35 5.35 0 0 0-3.25-1.1h-.14c13.27-11.69 32-11.06 32.23-11a2.06 2.06 0 0 0 1.54-.58 2.1 2.1 0 0 0 .65-1.52v-53a2.1 2.1 0 0 0-2-2.1c-1 0-23.32-.84-37.88 14.71-14.52-15.61-36.86-14.86-37.84-14.81a2.1 2.1 0 0 0-2 2.1v53.1a2.1 2.1 0 0 0 2.23 2.05c.21 0 18.95-.68 32.23 11h-.13a5.43 5.43 0 0 0-3.28 1.11c-9.33-8-22.52-9.17-29.65-9.17a4.17 4.17 0 0 1-4.18-4.15V45.76a1.58 1.58 0 1 0-3.15 0V94.9a7.31 7.31 0 0 0 7.33 7.3c6.74 0 19.22 1.13 27.78 8.56a5.5 5.5 0 0 0-.33 1.83 1.36 1.36 0 0 0 0 .2c-8.11-6.74-21.12-8.51-27.49-8.51a9.42 9.42 0 0 1-9.43-9.4V55.52h-2.81a1.57 1.57 0 0 0-1.57 1.58v50.28a7.84 7.84 0 0 0 7.83 7.83h34.12a5.45 5.45 0 0 0 4.78 2.85h11.22a5.45 5.45 0 0 0 4.73-2.85h34.14a7.84 7.84 0 0 0 7.84-7.83V57.1a1.58 1.58 0 0 0-1.54-1.58Zm-52.89 48.95c-11.93-11-27.81-12.46-33.55-12.61V43.01c5.78.2 22.72 1.88 33.59 14.43Zm4.21-47c10.84-12.54 27.8-14.24 33.59-14.46v48.85c-5.79.15-21.66 1.61-33.59 12.61Z" class="cls-2"/><path d="M44.88 54.48a1.49 1.49 0 0 0-1.66 1.33 1.51 1.51 0 0 0 1.33 1.66c6 .67 14.69 2.67 22 8.43a1.46 1.46 0 0 0 .93.32 1.5 1.5 0 0 0 .92-2.68c-7.86-6.19-17.11-8.35-23.52-9.06ZM44.88 76.55a1.509 1.509 0 1 0-.33 3 48.49 48.49 0 0 1 22.06 8.46 1.48 1.48 0 0 0 .89.29 1.5 1.5 0 0 0 .89-2.71 51.5 51.5 0 0 0-23.51-9.04ZM44.87 65.51a1.508 1.508 0 0 0-.31 3 48.67 48.67 0 0 1 22 8.46 1.501 1.501 0 1 0 1.79-2.41 51.19 51.19 0 0 0-23.48-9.05ZM103.03 54.48c-6.38.71-15.65 2.86-23.54 9.06a1.51 1.51 0 0 0-.2 2.11 1.51 1.51 0 0 0 2.11.25c7.33-5.76 16-7.76 22-8.43a1.51 1.51 0 0 0-.34-3ZM96.13 77.86a49.9 49.9 0 0 0-16.6 7.72 1.5 1.5 0 0 0 .89 2.71 1.48 1.48 0 0 0 .87-.28 46.82 46.82 0 0 1 15.6-7.24 1.504 1.504 0 1 0-.76-2.91ZM103.05 65.51a51.22 51.22 0 0 0-23.53 9 1.532 1.532 0 1 0 1.77 2.5 48.68 48.68 0 0 1 22-8.46 1.507 1.507 0 1 0-.3-3Z" class="cls-2"/></svg>