<svg xmlns="http://www.w3.org/2000/svg" xml:space="preserve" style="enable-background:new 0 0 150 150" viewBox="0 0 150 150"><switch><g><circle cx="74.78" cy="75.06" r="74.06" style="fill:#fff"/><path d="M96.79 72.97c-4.73 0-9.11-.57-12.21-1.56v1.19c3.2.96 7.54 1.52 12.21 1.52 5.02 0 9.66-.64 12.9-1.73v-1.16l-.01-.04c-3.12 1.12-7.8 1.78-12.89 1.78zm32.46-8.67v-2.5c0-3.57-7.08-6.06-17.21-6.06-10.14 0-17.23 2.49-17.23 6.06v1.35c-8.39.32-16.19 2.37-16.19 6.55v2.71c.17 1.28.76 2.25 1.9 3.11l-.08.09c-1.23 1.38-1.82 2.7-1.82 4.06 0 1.85 1.54 31.04 1.89 36.51.24 3.77 6.29 5.94 16.59 5.94 7.77 0 16.31-1.74 16.69-5.55.05-.47.17-2.65.33-5.73 6.52-.27 13.12-1.92 13.43-5.04.19-1.89 1.69-32.94 1.69-34.97 0-.56-.15-1.13-.47-1.74-.3-.6-.75-1.22-1.36-1.9.89-.74 1.8-1.5 1.84-2.89zm-18.56 51.95c-.08.82-5.9 2.75-13.6 2.75-8.56 0-13.41-1.79-13.49-3.02-.32-5.01-1.88-34.54-1.88-36.32 0-.53.37-1.24 1.03-1.99.21-.23.43-.46.67-.67 4.35 1.4 8.72 2.04 13.67 1.96 4.1-.12 9.18-.27 13.77-1.98l.05.05.35.37c.47.51.82 1 1.03 1.4.17.33.18.49.18.52.01 1.95-1.59 35.1-1.78 36.93zm1.79-43.9c0 1.2-5.99 3.49-15.39 3.49-9.38 0-15.37-2.29-15.37-3.49v-2.66c0-1.2 5.99-3.49 15.39-3.49 9.38 0 15.37 2.29 15.37 3.49v2.66zm12.44 33.18c-.07.74-4.27 2.31-10.67 2.64.12-2.28.25-4.84.38-7.49 3.49-.17 6.58-.73 8.73-1.58l.68-.27c.09-.04.15-.13.15-.23V74.16a.23.23 0 0 0-.11-.2c-.07-.05-.15-.05-.23-.03l-1.47.58c-1.95.77-4.94 1.29-8.26 1.42-.13-.16-.27-.33-.42-.5.93-.77 1.85-1.6 1.88-3.08V70.2c2.88-.17 6.19-.52 9.4-1.74.05.04.06.06.11.11l.33.35c.45.49.79.96.99 1.34.16.32.18.49.18.55.01 2.02-1.48 32.84-1.67 34.72zm-9.43-27.05c1.87-.11 3.99-.32 6.07-.93v19.38c-2.23.75-4.57.98-6.8 1.08.43-8.8.83-17.63.83-18.72 0-.26-.04-.53-.1-.81zM126.6 64.3c0 1.13-4.47 2.92-11.77 3.33-.4-.52-.93-1-1.6-1.42 3.83-.16 7.3-.71 9.85-1.58v-1.06l-.02-.06c-3.39 1.22-6.85 1.66-11.88 1.67-3.49-1.39-8.61-2.05-13.74-2.08v-1.3c0-1.37 6.13-3.41 14.59-3.41 8.45 0 14.57 2.04 14.57 3.41v2.5zm-16.9 18.29-1.57.62c-2.45.97-6.43 1.55-10.66 1.55s-8.22-.58-10.67-1.55l-1.57-.62a.289.289 0 0 0-.27.03c-.08.05-.13.14-.13.24v26.02c0 .12.07.22.18.27l.72.29c2.81 1.12 7.08 1.76 11.72 1.76 4.64 0 8.92-.64 11.72-1.76l.72-.29c.11-.04.18-.15.18-.27V82.86c0-.1-.05-.18-.13-.24-.05-.05-.15-.06-.24-.03zm-2.47 24.5c-3.13 1.06-6.5 1.15-9.75 1.24l-.17-.01c-3.21-.11-6.52-.22-9.61-1.23V86.48c3.43.83 6.63 1.2 9.77 1.15l.25-.01c3.15-.11 6.4-.22 9.5-1.12v20.59zm-30.4-68.58c-.03-.12-.08-.23-.13-.34-.02-.03-.03-.06-.05-.08-.06-.09-.12-.16-.2-.24l-.05-.05-.02-.02c-.09-.07-.19-.13-.3-.18-.01-.01-.02-.01-.03-.02l-15.44-6.46c-.24-.1-.49-.13-.74-.08l-34.43 6.31c-.45.08-.81.4-.97.81-.1.19-.16.4-.16.63v66.76c0 .52.31 1 .79 1.2l15.5 6.69c.01 0 .02 0 .03.01.15.06.32.1.48.1h.01c.08 0 .16-.01.24-.02l34.44-6.69c.62-.12 1.06-.66 1.06-1.29V38.79c0-.09-.01-.18-.03-.27v-.01zM39.8 110.24l-12.88-5.56V93.21l12.88 4.8v12.23zm0-15.03-12.82-4.78-.06-35.73 12.87 5.53v34.98zm0-37.84-12.88-5.53V40.79l12.88 5.56v11.02zm1.46-13.63-11.01-4.6 29.71-5.44 11.01 4.6-29.71 5.44zm32.98 60.73-31.81 6.18V98.24l31.81-6.21v12.44zm0-15.11-31.7 6.19V60.49l31.7-6.19v35.06zm0-37.73-31.81 6.21V46.56l31.81-6.18v11.25z" style="fill:#020203"/></g></switch></svg>