<?xml version="1.0" encoding="utf-8"?>
<!DOCTYPE svg PUBLIC "-//W3C//DTD SVG 1.1//EN" "http://www.w3.org/Graphics/SVG/1.1/DTD/svg11.dtd" [
	<!ENTITY ns_extend "http://ns.adobe.com/Extensibility/1.0/">
	<!ENTITY ns_ai "http://ns.adobe.com/AdobeIllustrator/10.0/">
	<!ENTITY ns_graphs "http://ns.adobe.com/Graphs/1.0/">
	<!ENTITY ns_vars "http://ns.adobe.com/Variables/1.0/">
	<!ENTITY ns_imrep "http://ns.adobe.com/ImageReplacement/1.0/">
	<!ENTITY ns_sfw "http://ns.adobe.com/SaveForWeb/1.0/">
	<!ENTITY ns_custom "http://ns.adobe.com/GenericCustomNamespace/1.0/">
	<!ENTITY ns_adobe_xpath "http://ns.adobe.com/XPath/1.0/">
]>
<svg version="1.1" xmlns:x="&ns_extend;" xmlns:i="&ns_ai;" xmlns:graph="&ns_graphs;"
	 xmlns="http://www.w3.org/2000/svg" xmlns:xlink="http://www.w3.org/1999/xlink" x="0px" y="0px" viewBox="0 0 150 150"
	 style="enable-background:new 0 0 150 150;" xml:space="preserve">
<style type="text/css">
	.st0{fill:#FFFFFF;}
	.st1{fill:#020203;}
</style>
<switch>
	<g i:extraneous="self">
		<g id="Laag_2">
			<circle class="st0" cx="74.78" cy="75.06" r="74.06"/>
		</g>
		<g id="Laag_13">
			<g>
				<path class="st1" d="M119.39,50.05h-7.3v-4.07c0-3.9-3.22-7.13-7.13-7.13h-1.87v-3.73h5.26c4.24,0,8.31,1.87,11.2,5.09
					c0.34,0.34,1.19,1.02,2.38,0.17c0.68-0.68,0.85-1.7,0.17-2.38c-3.39-4.07-8.48-6.28-13.74-6.28H92.41c-1.02,0-1.7,0.68-1.7,1.7
					s0.68,1.7,1.7,1.7h7.3v3.73h-1.87c-3.9,0-7.13,3.22-7.13,7.13v4.07h-7.3c-3.56,0-6.45,2.88-6.45,6.45v50.06
					c0,3.56,2.88,6.45,6.45,6.45h35.8c3.56,0,6.45-2.88,6.45-6.45V56.67C125.84,53.1,122.95,50.05,119.39,50.05z M94.11,45.98
					c0-2.04,1.7-3.73,3.73-3.73h7.13c2.04,0,3.73,1.7,3.73,3.73v4.07H94.11V45.98z M122.45,106.72c0,1.7-1.36,3.05-3.05,3.05H83.42
					c-1.7,0-3.05-1.36-3.05-3.05V94.85h42.08V106.72z M122.45,91.45H80.37V71.77h42.08V91.45z M122.45,68.38H80.37V56.5
					c0-1.53,1.36-3.05,3.05-3.05h8.99h17.99h8.99c1.7,0,3.05,1.36,3.05,3.05V68.38z"/>
				<path class="st1" d="M61.21,78.97h-5.8c-0.41-1.54-1.4-2.91-2.76-3.79c-1.36-0.88-2.96-1.2-4.53-0.91
					c-1.6-1.56-3.69-2.44-5.93-2.5c-1.91-2.35-5.53-3.04-8.15-1.56c-0.83-0.55-1.79-0.84-2.75-0.85c-0.64-1.45-2.08-2.4-3.68-2.4
					c-2.22,0-4.02,1.81-4.02,4.02c0,1.6,0.95,3.04,2.4,3.68c0.02,0.98,0.31,1.93,0.85,2.75c-0.56,0.97-0.85,2.05-0.85,3.17
					c0,0.01,0,0.02,0,0.03c-4.45,2.38-7.2,6.95-7.2,11.98v7.2c0,7.51,6.11,13.63,13.63,13.63h28.8c7.51,0,13.63-6.11,13.63-13.63
					v-7.2C74.84,85.08,68.73,78.97,61.21,78.97z M28.46,71.86c-0.2-0.08-0.42-0.13-0.64-0.13c-0.05,0-0.1,0-0.15,0.01
					c-0.03,0-0.1,0.02-0.17,0.03c-0.38-0.06-0.67-0.39-0.67-0.77c0-0.43,0.35-0.78,0.78-0.78c0.41,0,0.74,0.32,0.79,0.55
					c-0.02,0.1-0.05,0.23-0.05,0.3C28.32,71.34,28.36,71.61,28.46,71.86z M29.34,72.73c0.38,0.16,0.81,0.16,1.19,0.02
					c0.82-0.31,1.61-0.09,2.18,0.58c0.29,0.34,0.7,0.55,1.14,0.57c0.44,0.03,0.88-0.12,1.21-0.43c0.68-0.63,1.63-0.91,2.62-0.75
					c0.99,0.16,1.83,0.71,2.29,1.53c0.31,0.55,0.94,0.89,1.52,0.82c0.02,0,0.32-0.03,0.4-0.04c0.04-0.01,0.08-0.01,0.13-0.01
					c1.67,0,3.24,0.76,4.32,2.1c0.43,0.53,1.16,0.74,1.81,0.51c1.05-0.38,2.08-0.27,2.9,0.31c0.84,0.59,1.34,1.58,1.34,2.66
					s-0.5,2.07-1.34,2.66c-0.83,0.58-1.86,0.69-2.91,0.31c-0.65-0.23-1.38-0.03-1.81,0.51c-1.07,1.33-2.65,2.1-4.32,2.1
					c-2.01,0-3.87-1.11-4.86-2.91c-0.24-0.44-0.68-0.74-1.18-0.82c-0.08-0.01-0.16-0.02-0.25-0.02c-0.42,0-0.82,0.16-1.12,0.46
					c-0.6,0.57-1.38,0.89-2.2,0.89c-0.31,0-0.63-0.06-0.99-0.18L31.28,84h0l0-0.44c-0.28-0.11-0.55-0.26-0.82-0.47
					c-0.04-0.03-0.08-0.07-0.12-0.1c-0.25-0.21-0.46-0.45-0.61-0.7l-0.36,0.23l0.29-0.35c-0.19-0.32-0.31-0.62-0.36-0.84l0-0.18
					l-0.03-0.03c-0.03-0.17-0.04-0.34-0.04-0.51c0-0.79,0.3-1.56,0.86-2.15c0.3-0.32,0.46-0.76,0.43-1.21
					c-0.03-0.44-0.23-0.86-0.58-1.15c-0.45-0.38-0.71-0.93-0.71-1.5c0-0.22,0.04-0.44,0.13-0.68C29.51,73.53,29.5,73.1,29.34,72.73z
					 M26.88,83.81c0.18,0.31,0.38,0.59,0.62,0.88l0.08,0.09c0.05,0.07,0.1,0.13,0.16,0.19c0.36,0.39,0.77,0.73,1.2,1.01
					c0.05,0.04,0.11,0.06,0.23,0.13c0.38,0.22,0.79,0.41,1.27,0.57c0.12,0.04,0.23,0.08,0.35,0.11c0.6,0.16,1.11,0.23,1.62,0.23
					c1.02,0,2.02-0.24,2.92-0.71c1.68,1.98,4.1,3.11,6.68,3.11c0.58,0,1.17-0.06,1.75-0.18c1.65-0.34,3.15-1.14,4.37-2.33
					c0.36,0.06,0.73,0.1,1.1,0.1c0.14,0,0.28-0.01,0.42-0.03l0.15-0.02c0.29-0.03,0.58-0.05,0.86-0.12
					c0.14-0.03,0.28-0.08,0.42-0.13l0.12-0.04c0.25-0.08,0.49-0.17,0.73-0.28c0.14-0.07,0.27-0.14,0.49-0.26
					c0.23-0.13,0.45-0.27,0.66-0.43c0.14-0.1,0.27-0.21,0.4-0.33c0.21-0.19,0.41-0.39,0.59-0.6c0.1-0.12,0.2-0.23,0.3-0.36
					c0.19-0.25,0.34-0.51,0.49-0.78l0.06-0.1c0.05-0.08,0.09-0.16,0.13-0.25c0.13-0.28,0.25-0.6,0.35-0.97l0.03-0.09h5.8
					c5.72,0,10.38,4.66,10.38,10.38v7.2c0,5.72-4.66,10.38-10.38,10.38h-28.8c-5.72,0-10.38-4.66-10.38-10.38v-7.2
					C22.03,89.03,23.88,85.7,26.88,83.81z"/>
				<path class="st1" d="M61.21,87.02c3.08,0,5.58,2.5,5.58,5.58v7.2c0,0.9,0.73,1.62,1.62,1.62s1.62-0.73,1.62-1.62v-7.2
					c0-4.87-3.96-8.83-8.83-8.83c-0.9,0-1.62,0.73-1.62,1.62S60.32,87.02,61.21,87.02z"/>
				<path class="st1" d="M32.41,108.62c0.9,0,1.62-0.73,1.62-1.62s-0.73-1.62-1.62-1.62c-3.08,0-5.58-2.5-5.58-5.58v-7.2
					c0-0.9-0.73-1.62-1.62-1.62s-1.62,0.73-1.62,1.62v7.2C23.58,104.67,27.54,108.62,32.41,108.62z"/>
			</g>
		</g>
	</g>
</switch>
</svg>
