<svg xmlns="http://www.w3.org/2000/svg" xml:space="preserve" style="enable-background:new 0 0 150 150" viewBox="0 0 150 150"><style>.st1{stroke:#020203;stroke-width:.4411;stroke-miterlimit:10}.st1,.st2{fill:#020203}</style><switch><g><circle id="Laag_2" cx="74.78" cy="75.06" r="74.06" style="fill:#fff"/><g id="Laag_14"><circle cx="38.67" cy="77.96" r="1.25" class="st1"/><circle cx="38.67" cy="82.42" r="1.25" class="st1"/><circle cx="42.68" cy="79.87" r="1.25" class="st1"/><circle cx="43.33" cy="102.86" r="1.25" class="st1"/><path d="M52.22 65.2h2.22v3.79h-2.3c-1.45 0-2.8.33-3.62 1.52H33.66c-2.57 0-4.66 1.94-4.66 4.33v29.75c0 2.39 2.09 4.33 4.66 4.33h14.86c.82 1.2 2.17 1.56 3.62 1.56h6.87c1.45 0 2.8-.37 3.62-1.56h26.95c2.57 0 4.66-1.94 4.66-4.33v-15.5c0-.1-.06-.18-.15-.21s-.19 0-.25.08l-1.82 2.35c-.03.04-.05.09-.05.14v13.14c0 1.14-1.08 2.07-2.4 2.07H63.41c0-.08.01-.15.01-.23V73c0-.08 0-.15-.01-.23h14.97c.08 0 .16-.04.2-.11.04-.07.04-.16 0-.23l-1.09-1.82a.214.214 0 0 0-.19-.11H62.63c-.82-1.2-2.17-1.52-3.62-1.52h-2.3v-4.92c0-.62-.51-1.13-1.13-1.13h-3.36c-1.18 0-2.14-.96-2.14-2.14v-1.04c0-1.18.96-2.14 2.14-2.14h6.87c1.18 0 2.14.96 2.14 2.14v1.04c0 1.18-.96 2.14-2.14 2.14h-.24c-.62 0-1.13.51-1.13 1.13 0 .62.51 1.13 1.13 1.13h.24a4.4 4.4 0 0 0 4.4-4.4v-1.04a4.4 4.4 0 0 0-4.4-4.4h-6.87a4.4 4.4 0 0 0-4.4 4.4v1.04c0 1.17.46 2.28 1.29 3.11.83.84 1.93 1.3 3.11 1.3zm-2.18 7.77c.15-.77.73-1.41 1.48-1.63h8.1a2.138 2.138 0 0 1 1.52 2.04v32.69a2.138 2.138 0 0 1-1.52 2.04h-8.1c-.75-.23-1.33-.86-1.48-1.63a1.84 1.84 0 0 1-.04-.41V73.39c0-.15.01-.28.04-.42zm-2.28 33.68h-14.1c-1.32 0-2.39-.93-2.39-2.07V74.84c0-1.14 1.07-2.07 2.39-2.07h14.1c-.02 2.96-.02 30.92 0 33.88z" class="st2"/><path d="M57.86 67.19c0 .62.51 1.13 1.13 1.13h16.73c.08 0 .16-.04.2-.11.04-.07.04-.16 0-.23l-1.09-1.82a.214.214 0 0 0-.19-.11H58.99c-.62.01-1.13.51-1.13 1.14zM98.56 88.83l-1.82-1.03a.217.217 0 0 0-.22 0c-.07.04-.11.11-.11.19v18.14c0 2.74-2.37 4.96-5.28 4.96H32.12c-2.91 0-5.28-2.23-5.28-4.96V73.29c0-2.74 2.37-4.96 5.28-4.96h20.02c.62 0 1.13-.51 1.13-1.13 0-.62-.51-1.13-1.13-1.13H32.12c-4.16 0-7.55 3.24-7.55 7.23v32.85c0 3.99 3.38 7.23 7.55 7.23h59.01c4.16 0 7.55-3.24 7.55-7.23V89.03a.265.265 0 0 0-.12-.2z" class="st2"/><path d="M134.19 93.71c-.72-.92-2.41-1.13-4.3-1.36-2.75-.33-7.34-.87-10.6-4.01-2.01-1.95-3.39-4.53-5.13-7.79l-.47-.89c-1.48-2.78-3.23-6.06-5.72-9.85-.01-.03-.01-.06-.03-.09-1.08-1.75-.31-8.18.26-11.41 0-.18 0-.73-.52-1.07-.95-.61-4.68-1.13-11.09-1.55-.61-.63-1.22-1.24-1.85-1.83-.07-.07-.14-.14-.21-.2-.42-.39-.84-.77-1.27-1.15l-.26-.23a57.396 57.396 0 0 0-4.31-3.42c-.28-.2-.57-.4-.85-.6-.41-.28-.81-.55-1.22-.82-.14-.09-.28-.19-.42-.28a56.8 56.8 0 0 0-4.05-2.36c-.03-.02-.05-.05-.08-.06-9.63-5.06-16.93-5.35-17-5.35-.34 0-.61.12-.89.4-.09.11-.2.25-.3.48-.23.53-.34 1.48.32 3.51.82 2.58 2.87 6.87 7.46 14.13l.06.08s.01.01.02.01c4.01 6.41 8.72 13.01 11.36 15.85 1.26 1.34 2.93 2.8 4.83 4.27-.46 1.99-.86 6.31 3.01 9.79l.1.07c.18.09.41.2.67.2.3 0 .64-.15.86-.37.03-.03 2-2.09 2.65-4.6 4.36 2.79 8.83 5.28 12.06 6.81 4.91 2.39 8.13 5.95 9.59 10.56.16.55.32 1.12.48 1.7.15.55.31 1.1.46 1.63.94 3.45 1.44 5.27 2.38 5.86l-.39.39 1.22-.11c1.19-.1 1.55-1.3 2.16-3.3l.13-.43c.52-1.74 1.12-3.72 2.05-5.17.01-.02.03-.03.04-.05.03-.02.08-.03.11-.05l.14-.11c.96-1.11 2.94-1.81 4.55-2.37l.15-.06c2.23-.85 4.33-1.66 4.32-3.56-.03-.53-.2-.93-.48-1.24zM89.9 79.64l.57.39c.46.32.95.65 1.43.98.39.27.78.54 1.18.8-.09 1.35-.91 2.7-1.49 3.49-1.74-2.08-1.83-4.33-1.69-5.66zm5.12.73c-.01-.01-.01-.02-.02-.03l-.19-.15h-.05c-.25-.16-.5-.32-.73-.48-3.72-2.51-7.15-5.14-9.27-7.42-2.19-2.31-6.5-8.3-10.51-14.58 2.35-1.27 4.07-2.86 5.32-4.53 7.63 6.54 13.91 12.87 18.65 18.8 10.82 13.41 19.46 23.18 25.07 28.37-.89 1.47-1.44 3.31-1.89 4.83l-.16.55c-.09.26-.16.54-.24.8-.39-1.14-.78-2.64-.93-3.25-.31-1.17-.63-2.33-.95-3.44-1.71-5.32-5.36-9.32-10.84-11.88-3.46-1.62-8.53-4.47-13.26-7.59zm3.89-22.2c2.88.21 5.61.55 6.92.86-.28 1.5-.67 4.21-.7 6.73-1.75-2.37-3.79-4.9-6.22-7.59zm31.51 37.78c-.07.03-.14.05-.21.08-.07.02-.13.05-.2.07-.25.09-.47.17-.63.23-.02.01-.03.01-.04.02-.28.1-.56.21-.85.32-.24.09-.48.19-.71.28-.07.03-.13.06-.2.08-1.07.45-2.04.93-2.83 1.54-5.48-5.12-14.04-14.8-24.77-28.02-4.9-6.06-11.35-12.54-19.18-19.25.3-.57.56-1.15.8-1.74 0-.01.01-.02.01-.03.04-.11.09-.23.13-.34.23-.59.41-1.16.56-1.7 4.58 2.51 8.91 5.88 12.88 10.01v.1l.59.59c.98 1.03 1.93 2.07 2.84 3.11l.01.01c.22.25.42.5.64.75 6.88 8.17 10.24 14.64 12.36 18.73 1.84 3.58 3.57 6.75 6.02 9.18 3.83 3.72 8.94 4.31 12.07 4.67.62.08 1.93.25 2.51.42-.3.27-1.06.6-1.74.86-.02.02-.04.02-.06.03zm-64.4-54.22c3.61.53 6.92 1.53 9.71 2.6.23.09.47.19.71.28.12.05.23.1.35.14 1.12.46 2.29 1 3.49 1.61-.05.18-.08.37-.13.55l-.03.1c-.4 1.36-.98 2.67-1.74 3.9-.02.03-.02.07-.04.1-1.28 2.01-3.02 3.62-5.23 4.78-3.25-5.22-5.13-8.82-6.14-11.17-.62-1.48-.86-2.39-.95-2.89z" class="st2"/><path d="M75.49 50.87c.7 0 1.4-.28 1.95-.84.54-.55.84-1.29.82-2.04-.02-.72-.32-1.38-.84-1.87-1.11-1.1-2.79-1.09-3.89.02-1.11 1.11-1.1 2.79.01 3.9.56.55 1.26.83 1.95.83zm.49-2.99c-.27.27-.79.27-1.06 0a.793.793 0 0 1-.21-.53c0-.21.07-.4.2-.53.14-.14.34-.21.53-.21s.39.07.53.2c.28.28.28.8.01 1.07zM44.48 90.2c0-.83-.67-1.5-1.5-1.5s-1.5.67-1.5 1.5c0 .82.67 1.5 1.5 1.5s1.5-.68 1.5-1.5z" class="st2"/><circle cx="44.26" cy="99.94" r="1.5" class="st2"/><path d="M89.37 87.37c0-.55-.47-1.02-1.02-1.02h-1.02l-2.28-.71-3.77-3.14c-.55-.47-1.18-.71-1.88-.71H66.07c-1.02 0-1.8.78-1.8 1.8v13.5c0 .55.47 1.02 1.02 1.02s1.02-.47 1.02-1.02v-2.75l1.41-.78 1.26 3.84c.16.39.55.71.94.71.08 0 .24 0 .31-.08.55-.16.78-.71.63-1.26l-1.33-4.16 1.02-.55 5.1.63-.71 4.39c-.08.55.31 1.02.86 1.1h.16c.47 0 .94-.39.94-.86l.55-4.32 1.33.24v3.92c0 .55.47 1.02 1.02 1.02s1.02-.47 1.02-1.02V93l.63-.78 1.49.08c.55.39 1.65 1.33 2.35 1.73l.55.31c.31.16.63.24.94.16l1.02-.31c.55-.16.86-.63.86-1.18l-.08-4.71c.4.01.79-.38.79-.93zm-2.9 5.18-.24-.16c-.63-.39-1.96-1.41-2.35-1.8a.841.841 0 0 0-.55-.24l-2.28-.08h-.08c-.31 0-.55.16-.78.39l-.63.78-1.88-.31-7.3-.86c-.24 0-.39 0-.55.08l-3.53 1.88v-8.4h13.26c.24 0 .39.08.63.24l3.92 3.3c.08.08.24.16.39.16l2.2.63.08 4.32-.31.07z" class="st2"/></g></g></switch></svg>