<svg xmlns="http://www.w3.org/2000/svg" xml:space="preserve" style="enable-background:new 0 0 150 150" viewBox="0 0 150 150"><style>.st1{fill:#020203}</style><switch><g><circle id="Laag_2" cx="74.78" cy="75.06" r="74.06" style="fill:#fff"/><g id="Laag_3"><path d="M53.53 87.26c-.39.04-4.34.33-9.4-2.12-.44-.15-.85-.1-1.21.15-.39.26-.56.48-.56 1.03V99.2c0 .38.14.91.8 1.25.25.13 5.57 1.97 9.76 1.97h.89c.67 0 1.16-.54 1.16-1.29V88.54c0-.39-.13-.69-.41-.98-.11-.12-.46-.47-1.03-.3zm-8.65 10.95V88.2c3.11 1.26 5.76 1.6 7.56 1.64v9.89c-2.57-.08-5.82-.94-7.56-1.52zM79 58.36c-11.31 1.83-19.21 11.92-17.63 22.5 1.37 9.36 9.75 16.16 19.92 16.16 1.16 0 2.26-.1 3.48-.31 11.3-1.83 19.21-11.92 17.63-22.5-1.6-10.47-12.09-17.58-23.4-15.85zm5.54 36.32c-10.17 1.61-19.63-4.76-21.09-14.18-.66-4.22.4-8.54 2.97-12.16 2.96-4.17 7.67-7.03 12.92-7.86 1.06-.17 2.11-.25 3.14-.25 8.9 0 16.64 5.98 17.95 14.43 1.37 9.44-5.76 18.43-15.89 20.02z" class="st1"/><path d="m109.38 38.77 1.47-1.69c.45-.46.43-1.19.14-1.64-2.36-3.31-10.03-8.96-22.24-6.65-11.04 2.02-28.09 3.04-34.54 3.04-3.63 0-9.11 1.05-15.42 2.97-.16.05-.27.08-.28.09-.68.14-1.06.81-.89 1.63l.88 2.88.29 1.97V113c0 .61.33 1.06.84 1.19l14.14 5.99.15.1.12.02c.53.11 1.32.11 2.15.11 8.63 0 32.3-4.11 45.02-6.32l.43-.07c2.58-.41 4.57-.76 5.54-.93l.47-.08c.87-.09 1.51-.54 1.9-1.35.72-1.58-.64-3.98-1.8-5.71l1.63-4.54V38.77zm-2.28-1.33-.06.08c-.11.23-.24.49-.24.79v62.44l-1.76 5.02c-.15.46-.1.89.16 1.28 1.03 1.41 1.31 2.2 1.48 2.74 0 .23-1.2.2-1.44.23-1.01.16-1.6.3-4.14.76l-.9.16c-10.98 1.92-35.45 6.21-43.72 6.26-1.07.01-2.13-.22-3.12-.64l-12.01-5.04V41.58c.72.32 1.47.62 2.29.79 1.97.46 3.62.79 5.06 1.02l.51.09c1.44.26 2.58.46 3.93.92.34.07.67.03.95-.11.32-.16.54-.45.61-.82.07-.35.03-.69-.11-.97-.16-.33-.44-.55-.76-.61-1.66-.53-3.07-.83-4.71-1.13-1.31-.19-2.77-.49-5.01-1.01-1.26-.3-2.35-.78-3.31-1.48l-.34-1.2c5.71-1.68 10.58-2.61 13.75-2.61 6.52 0 23.79-1.02 34.98-3.05 9.87-1.84 16.57 2.19 18.98 4.78l-1.07 1.25z" class="st1"/><path d="M82.48 61.4c-1 0-2.01.1-2.99.2-4.86.79-9.21 3.46-11.94 7.35-2.38 3.38-3.35 7.39-2.72 11.3 1.19 7.84 8.15 13.52 16.56 13.52 1.01 0 2.01-.1 2.99-.21 2.37-.4 4.55-1.21 6.69-2.46 4.54-3.21 8.97-9.64 7.97-16.18-1.19-7.83-8.15-13.52-16.56-13.52zm9.11 18.21c-.94-.96-1.14-2.83-1.14-2.83 0-.46-.32-.83-.8-.96-.44-.12-.79-.01-1.14.36-.23.32-.41.58-.57.82-.33-.54-.74-1.06-1.08-1.49l-.18-.22c-.06-.12-.15-.21-.22-.29a.959.959 0 0 1-.19-.24c-.48-.59-.67-1.97-.76-2.54 0-.49-.36-.84-.69-.96-.37-.13-.82.01-1.14.34-.15.16-.28.32-.4.47-.09.11-.17.21-.26.31-.36-.55-.72-1.09-1.09-1.47-.08-.16-.22-.26-.31-.34-.04-.03-.07-.05-.09-.07-.37-.47-.57-1.68-.66-2.24 0-.49-.36-.84-.69-.96-.37-.13-.82.01-1.15.35-.67.79-1.16 1.58-1.51 2.2-.67-.57-1.41-.94-2.07-1.27l-.3-.15c-.62-.27-.92-.35-1.31-.75-.34-.35-.7-.35-1.14-.24-.36.12-.45.59-.45.96 0 .36-.28 3.26 1.35 5.47-1.09.31-2.21.79-2.65 1.03-.1.06-.21.11-.21.12h-.04l-.04.03c-.38.26-.56.74-.46 1.18.12.5.61.73 1.03.73.59 0 1.23.61 1.91 1.25l.46.43c.34.34.68.7 1.03.99-.25.16-.33.16-.34.16h-.04l-.04.03c-.38.26-.56.74-.46 1.18.12.5.61.73 1.03.73.74 0 1.62.82 2.47 1.61l.29.27c.2.21.43.41.65.61.17.15.34.31.49.46-.68.36-1.11.62-1.12.62-.38.26-.56.74-.46 1.18.12.5.61.72 1.03.72.76 0 1.62 0 3.85 2.29.84.87 1.88 1.21 2.83 1.37-.4.09-.78.14-1.16.2-.87.1-1.77.2-2.65.2-7.41 0-13.51-4.9-14.49-11.63-.8-7.37 5.18-14.49 13.32-15.86.87-.1 1.77-.2 2.65-.2 7.41 0 13.51 4.9 14.49 11.64.77 4.71-1.78 8.76-3.63 10.99.04-.23.07-.48.07-.75.2-2.53-.79-4.89-1.82-5.84zm-15.63-3.9c.77 0 1.53.3 2.17.87.35.36 1.04.36 1.4 0 .33-.33.47-.93.11-1.42-.52-.71-1.2-2.19-.13-4.25l.47.96.03.04c.09.09.28.29.39.5.43.51 1.43 1.71 1.35 2.5-.51 1.23-.7 2.49-.53 3.59-1.38-.32-2.74-.07-4 .26h-.04c-.34 0-1.18-.85-1.79-1.48-.42-.43-.85-.87-1.35-1.25.6-.18 1.26-.32 1.92-.32zm1-2.08c-.23-.05-.45-.05-.67-.05-1.28-.83-1.75-2.45-1.92-3.34.04.01.08.03.1.05l.04.03c.94.48 1.9.98 2.48 1.73-.08.6-.09 1.07-.03 1.58zm-1.7 3.75zm3.96 5.08.1-.11c-.51-.53-1.04-1.07-1.64-1.47 2.09-.74 3.73-.54 4.89.58.35.36 1.04.36 1.4 0 .33-.33.47-.93.12-1.41-1.05-1.54-1.07-3.23-.05-5.14.17.44.36.91.69 1.26.06.11.14.2.21.27.07.07.13.13.17.21l.02.03c1.07 1.26 1.61 2.26 1.55 2.91-.7 1.85-.68 3.25-.53 4.38-1.75-.56-3.36-.26-4.58.07-.58-.02-1.47-.88-2.25-1.68l-.1.1zm2.14 3.88c2.57-.89 4.64-.59 6.16.89.35.36 1.04.36 1.4 0 .33-.33.47-.93.11-1.41-.86-1.21-1.52-3.28.07-6.38.35.68.7 1.24 1.1 1.72.42.34 1.33 1.98 1.13 4.03-.1 1.4-.67 2.55-1.7 3.42-2.86.84-4.94.77-5.85-.17-.84-.94-1.65-1.64-2.42-2.1z" class="st1"/></g></g></switch></svg>