<?xml version="1.0" encoding="utf-8"?>
<!DOCTYPE svg PUBLIC "-//W3C//DTD SVG 1.1//EN" "http://www.w3.org/Graphics/SVG/1.1/DTD/svg11.dtd" [
	<!ENTITY ns_extend "http://ns.adobe.com/Extensibility/1.0/">
	<!ENTITY ns_ai "http://ns.adobe.com/AdobeIllustrator/10.0/">
	<!ENTITY ns_graphs "http://ns.adobe.com/Graphs/1.0/">
	<!ENTITY ns_vars "http://ns.adobe.com/Variables/1.0/">
	<!ENTITY ns_imrep "http://ns.adobe.com/ImageReplacement/1.0/">
	<!ENTITY ns_sfw "http://ns.adobe.com/SaveForWeb/1.0/">
	<!ENTITY ns_custom "http://ns.adobe.com/GenericCustomNamespace/1.0/">
	<!ENTITY ns_adobe_xpath "http://ns.adobe.com/XPath/1.0/">
]>
<svg version="1.1" xmlns:x="&ns_extend;" xmlns:i="&ns_ai;" xmlns:graph="&ns_graphs;"
	 xmlns="http://www.w3.org/2000/svg" xmlns:xlink="http://www.w3.org/1999/xlink" x="0px" y="0px" viewBox="0 0 150 150"
	 style="enable-background:new 0 0 150 150;" xml:space="preserve">
<style type="text/css">
	.st0{fill:#FFFFFF;}
	.st1{fill:#020203;}
</style>
<switch>
	<g i:extraneous="self">
		<g id="Laag_2">
			<circle class="st0" cx="74.78" cy="75.06" r="74.06"/>
		</g>
		<g id="Laag_3">
			<g>
				<path class="st1" d="M53.53,87.26c-0.39,0.04-4.34,0.33-9.4-2.12c-0.44-0.15-0.85-0.1-1.21,0.15c-0.39,0.26-0.56,0.48-0.56,1.03
					V99.2c0,0.38,0.14,0.91,0.8,1.25c0.25,0.13,5.57,1.97,9.76,1.97h0.89c0.67,0,1.16-0.54,1.16-1.29V88.54
					c0-0.39-0.13-0.69-0.41-0.98C54.45,87.44,54.1,87.09,53.53,87.26z M44.88,98.21V88.2c3.11,1.26,5.76,1.6,7.56,1.64v9.89
					C49.87,99.65,46.62,98.79,44.88,98.21z"/>
				<path class="st1" d="M79,58.36L79,58.36c-11.31,1.83-19.21,11.92-17.63,22.5c1.37,9.36,9.75,16.16,19.92,16.16
					c1.16,0,2.26-0.1,3.48-0.31c11.3-1.83,19.21-11.92,17.63-22.5C100.8,63.74,90.31,56.63,79,58.36z M84.54,94.68
					c-10.17,1.61-19.63-4.76-21.09-14.18c-0.66-4.22,0.4-8.54,2.97-12.16c2.96-4.17,7.67-7.03,12.92-7.86
					c1.06-0.17,2.11-0.25,3.14-0.25c8.9,0,16.64,5.98,17.95,14.43C101.8,84.1,94.67,93.09,84.54,94.68z"/>
				<path class="st1" d="M109.38,38.77l1.47-1.69c0.45-0.46,0.43-1.19,0.14-1.64c-2.36-3.31-10.03-8.96-22.24-6.65
					c-11.04,2.02-28.09,3.04-34.54,3.04c-3.63,0-9.11,1.05-15.42,2.97c-0.16,0.05-0.27,0.08-0.28,0.09
					c-0.68,0.14-1.06,0.81-0.89,1.63l0.88,2.88l0.29,1.97V113c0,0.61,0.33,1.06,0.84,1.19l14.14,5.99l0.15,0.1l0.12,0.02
					c0.53,0.11,1.32,0.11,2.15,0.11c8.63,0,32.3-4.11,45.02-6.32l0.43-0.07c2.58-0.41,4.57-0.76,5.54-0.93l0.47-0.08
					c0.87-0.09,1.51-0.54,1.9-1.35c0.72-1.58-0.64-3.98-1.8-5.71l1.63-4.54V38.77z M107.1,37.44l-0.06,0.08
					c-0.11,0.23-0.24,0.49-0.24,0.79v62.44l-1.76,5.02c-0.15,0.46-0.1,0.89,0.16,1.28c1.03,1.41,1.31,2.2,1.48,2.74
					c0,0.23-1.2,0.2-1.44,0.23c-1.01,0.16-1.6,0.3-4.14,0.76l-0.9,0.16c-10.98,1.92-35.45,6.21-43.72,6.26
					c-1.07,0.01-2.13-0.22-3.12-0.64l-12.01-5.04V41.58c0.72,0.32,1.47,0.62,2.29,0.79c1.97,0.46,3.62,0.79,5.06,1.02l0.51,0.09
					c1.44,0.26,2.58,0.46,3.93,0.92c0.34,0.07,0.67,0.03,0.95-0.11c0.32-0.16,0.54-0.45,0.61-0.82c0.07-0.35,0.03-0.69-0.11-0.97
					c-0.16-0.33-0.44-0.55-0.76-0.61c-1.66-0.53-3.07-0.83-4.71-1.13c-1.31-0.19-2.77-0.49-5.01-1.01c-1.26-0.3-2.35-0.78-3.31-1.48
					l-0.34-1.2c5.71-1.68,10.58-2.61,13.75-2.61c6.52,0,23.79-1.02,34.98-3.05c9.87-1.84,16.57,2.19,18.98,4.78L107.1,37.44z"/>
				<path class="st1" d="M82.48,61.4c-1,0-2.01,0.1-2.99,0.2c-4.86,0.79-9.21,3.46-11.94,7.35c-2.38,3.38-3.35,7.39-2.72,11.3
					c1.19,7.84,8.15,13.52,16.56,13.52c1.01,0,2.01-0.1,2.99-0.21c2.37-0.4,4.55-1.21,6.69-2.46c4.54-3.21,8.97-9.64,7.97-16.18
					C97.85,67.09,90.89,61.4,82.48,61.4z M91.59,79.61c-0.94-0.96-1.14-2.83-1.14-2.83c0-0.46-0.32-0.83-0.8-0.96
					c-0.44-0.12-0.79-0.01-1.14,0.36c-0.23,0.32-0.41,0.58-0.57,0.82c-0.33-0.54-0.74-1.06-1.08-1.49l-0.18-0.22
					c-0.06-0.12-0.15-0.21-0.22-0.29c-0.07-0.07-0.13-0.13-0.19-0.24c-0.48-0.59-0.67-1.97-0.76-2.54c0-0.49-0.36-0.84-0.69-0.96
					c-0.37-0.13-0.82,0.01-1.14,0.34c-0.15,0.16-0.28,0.32-0.4,0.47c-0.09,0.11-0.17,0.21-0.26,0.31c-0.36-0.55-0.72-1.09-1.09-1.47
					c-0.08-0.16-0.22-0.26-0.31-0.34c-0.04-0.03-0.07-0.05-0.09-0.07c-0.37-0.47-0.57-1.68-0.66-2.24c0-0.49-0.36-0.84-0.69-0.96
					c-0.37-0.13-0.82,0.01-1.15,0.35c-0.67,0.79-1.16,1.58-1.51,2.2c-0.67-0.57-1.41-0.94-2.07-1.27l-0.3-0.15
					c-0.62-0.27-0.92-0.35-1.31-0.75c-0.34-0.35-0.7-0.35-1.14-0.24c-0.36,0.12-0.45,0.59-0.45,0.96c0,0.36-0.28,3.26,1.35,5.47
					c-1.09,0.31-2.21,0.79-2.65,1.03c-0.1,0.06-0.21,0.11-0.21,0.12h-0.04l-0.04,0.03c-0.38,0.26-0.56,0.74-0.46,1.18
					c0.12,0.5,0.61,0.73,1.03,0.73c0.59,0,1.23,0.61,1.91,1.25c0.15,0.14,0.31,0.29,0.46,0.43c0.34,0.34,0.68,0.7,1.03,0.99
					c-0.25,0.16-0.33,0.16-0.34,0.16h-0.04l-0.04,0.03c-0.38,0.26-0.56,0.74-0.46,1.18c0.12,0.5,0.61,0.73,1.03,0.73
					c0.74,0,1.62,0.82,2.47,1.61l0.29,0.27c0.2,0.21,0.43,0.41,0.65,0.61c0.17,0.15,0.34,0.31,0.49,0.46
					c-0.68,0.36-1.11,0.62-1.12,0.62c-0.38,0.26-0.56,0.74-0.46,1.18c0.12,0.5,0.61,0.72,1.03,0.72c0.76,0,1.62,0,3.85,2.29
					c0.84,0.87,1.88,1.21,2.83,1.37c-0.4,0.09-0.78,0.14-1.16,0.2c-0.87,0.1-1.77,0.2-2.65,0.2c-7.41,0-13.51-4.9-14.49-11.63
					c-0.8-7.37,5.18-14.49,13.32-15.86c0.87-0.1,1.77-0.2,2.65-0.2c7.41,0,13.51,4.9,14.49,11.64c0.77,4.71-1.78,8.76-3.63,10.99
					c0.04-0.23,0.07-0.48,0.07-0.75C93.61,82.92,92.62,80.56,91.59,79.61z M75.96,75.71c0.77,0,1.53,0.3,2.17,0.87
					c0.35,0.36,1.04,0.36,1.4,0c0.33-0.33,0.47-0.93,0.11-1.42c-0.52-0.71-1.2-2.19-0.13-4.25l0.47,0.96l0.03,0.04
					c0.09,0.09,0.28,0.29,0.39,0.5c0.43,0.51,1.43,1.71,1.35,2.5c-0.51,1.23-0.7,2.49-0.53,3.59c-1.38-0.32-2.74-0.07-4,0.26
					c-0.01,0-0.03,0-0.04,0c-0.34,0-1.18-0.85-1.79-1.48l0,0c-0.42-0.43-0.85-0.87-1.35-1.25C74.64,75.85,75.3,75.71,75.96,75.71z
					 M76.96,73.63c-0.23-0.05-0.45-0.05-0.67-0.05c-1.28-0.83-1.75-2.45-1.92-3.34c0.04,0.01,0.08,0.03,0.1,0.05l0.04,0.03
					c0.94,0.48,1.9,0.98,2.48,1.73C76.91,72.65,76.9,73.12,76.96,73.63z M75.26,77.38L75.26,77.38L75.26,77.38L75.26,77.38z
					 M79.22,82.46l0.1-0.11c-0.51-0.53-1.04-1.07-1.64-1.47c2.09-0.74,3.73-0.54,4.89,0.58c0.35,0.36,1.04,0.36,1.4,0
					c0.33-0.33,0.47-0.93,0.12-1.41c-1.05-1.54-1.07-3.23-0.05-5.14c0.17,0.44,0.36,0.91,0.69,1.26c0.06,0.11,0.14,0.2,0.21,0.27
					c0.07,0.07,0.13,0.13,0.17,0.21l0.02,0.03c1.07,1.26,1.61,2.26,1.55,2.91c-0.7,1.85-0.68,3.25-0.53,4.38
					c-1.75-0.56-3.36-0.26-4.58,0.07c-0.58-0.02-1.47-0.88-2.25-1.68L79.22,82.46L79.22,82.46z M81.36,86.34
					c2.57-0.89,4.64-0.59,6.16,0.89c0.35,0.36,1.04,0.36,1.4,0c0.33-0.33,0.47-0.93,0.11-1.41c-0.86-1.21-1.52-3.28,0.07-6.38
					c0.35,0.68,0.7,1.24,1.1,1.72c0.42,0.34,1.33,1.98,1.13,4.03v0c-0.1,1.4-0.67,2.55-1.7,3.42c-2.86,0.84-4.94,0.77-5.85-0.17
					C82.94,87.5,82.13,86.8,81.36,86.34z"/>
			</g>
		</g>
	</g>
</switch>
</svg>
