<?xml version="1.0" encoding="utf-8"?>
<!DOCTYPE svg PUBLIC "-//W3C//DTD SVG 1.1//EN" "http://www.w3.org/Graphics/SVG/1.1/DTD/svg11.dtd" [
	<!ENTITY ns_extend "http://ns.adobe.com/Extensibility/1.0/">
	<!ENTITY ns_ai "http://ns.adobe.com/AdobeIllustrator/10.0/">
	<!ENTITY ns_graphs "http://ns.adobe.com/Graphs/1.0/">
	<!ENTITY ns_vars "http://ns.adobe.com/Variables/1.0/">
	<!ENTITY ns_imrep "http://ns.adobe.com/ImageReplacement/1.0/">
	<!ENTITY ns_sfw "http://ns.adobe.com/SaveForWeb/1.0/">
	<!ENTITY ns_custom "http://ns.adobe.com/GenericCustomNamespace/1.0/">
	<!ENTITY ns_adobe_xpath "http://ns.adobe.com/XPath/1.0/">
]>
<svg version="1.1" xmlns:x="&ns_extend;" xmlns:i="&ns_ai;" xmlns:graph="&ns_graphs;"
	 xmlns="http://www.w3.org/2000/svg" xmlns:xlink="http://www.w3.org/1999/xlink" x="0px" y="0px" viewBox="0 0 150 150"
	 style="enable-background:new 0 0 150 150;" xml:space="preserve">
<style type="text/css">
	.st0{fill:#FFFFFF;}
	.st1{fill:#020203;stroke:#020203;stroke-width:0.4411;stroke-miterlimit:10;}
	.st2{fill:#020203;}
</style>
<switch>
	<g i:extraneous="self">
		<g id="Laag_2">
			<circle class="st0" cx="74.78" cy="75.06" r="74.06"/>
		</g>
		<g id="Laag_14">
			<circle class="st1" cx="38.67" cy="77.96" r="1.25"/>
			<circle class="st1" cx="38.67" cy="82.42" r="1.25"/>
			<circle class="st1" cx="42.68" cy="79.87" r="1.25"/>
			<circle class="st1" cx="43.33" cy="102.86" r="1.25"/>
			<g>
				<path class="st2" d="M52.22,65.2h2.22v3.79h-2.3c-1.45,0-2.8,0.33-3.62,1.52H33.66c-2.57,0-4.66,1.94-4.66,4.33v29.75
					c0,2.39,2.09,4.33,4.66,4.33h14.86c0.82,1.2,2.17,1.56,3.62,1.56h6.87c1.45,0,2.8-0.37,3.62-1.56h26.95
					c2.57,0,4.66-1.94,4.66-4.33V89.09c0-0.1-0.06-0.18-0.15-0.21c-0.09-0.03-0.19,0-0.25,0.08l-1.82,2.35
					c-0.03,0.04-0.05,0.09-0.05,0.14v13.14c0,1.14-1.08,2.07-2.4,2.07H63.41c0-0.08,0.01-0.15,0.01-0.23V73c0-0.08,0-0.15-0.01-0.23
					h14.97c0.08,0,0.16-0.04,0.2-0.11c0.04-0.07,0.04-0.16,0-0.23l-1.09-1.82c-0.04-0.07-0.11-0.11-0.19-0.11H62.63
					c-0.82-1.2-2.17-1.52-3.62-1.52h-2.3v-4.92c0-0.62-0.51-1.13-1.13-1.13h-3.36c-1.18,0-2.14-0.96-2.14-2.14v-1.04
					c0-1.18,0.96-2.14,2.14-2.14h6.87c1.18,0,2.14,0.96,2.14,2.14v1.04c0,1.18-0.96,2.14-2.14,2.14h-0.24
					c-0.62,0-1.13,0.51-1.13,1.13c0,0.62,0.51,1.13,1.13,1.13h0.24c2.43,0,4.4-1.97,4.4-4.4v-1.04c0-2.43-1.97-4.4-4.4-4.4h-6.87
					c-2.43,0-4.4,1.97-4.4,4.4v1.04c0,1.17,0.46,2.28,1.29,3.11C49.94,64.74,51.04,65.2,52.22,65.2z M50.04,72.97
					c0.15-0.77,0.73-1.41,1.48-1.63h8.1c0.75,0.22,1.33,0.86,1.48,1.63c0.03,0.14,0.04,0.27,0.04,0.41v32.69
					c0,0.14-0.01,0.27-0.04,0.41c-0.15,0.77-0.73,1.41-1.48,1.63h-8.1c-0.75-0.23-1.33-0.86-1.48-1.63
					c-0.03-0.13-0.04-0.27-0.04-0.41V73.39C50,73.24,50.01,73.11,50.04,72.97z M47.76,106.65l-14.1,0c-1.32,0-2.39-0.93-2.39-2.07
					V74.84c0-1.14,1.07-2.07,2.39-2.07h14.1C47.74,75.73,47.74,103.69,47.76,106.65z"/>
				<path class="st2" d="M57.86,67.19c0,0.62,0.51,1.13,1.13,1.13h16.73c0.08,0,0.16-0.04,0.2-0.11c0.04-0.07,0.04-0.16,0-0.23
					l-1.09-1.82c-0.04-0.07-0.11-0.11-0.19-0.11H58.99C58.37,66.06,57.86,66.56,57.86,67.19z"/>
				<path class="st2" d="M98.56,88.83l-1.82-1.03c-0.07-0.04-0.15-0.04-0.22,0c-0.07,0.04-0.11,0.11-0.11,0.19v18.14
					c0,2.74-2.37,4.96-5.28,4.96H32.12c-2.91,0-5.28-2.23-5.28-4.96V73.29c0-2.74,2.37-4.96,5.28-4.96h20.02
					c0.62,0,1.13-0.51,1.13-1.13c0-0.62-0.51-1.13-1.13-1.13H32.12c-4.16,0-7.55,3.24-7.55,7.23v32.85c0,3.99,3.38,7.23,7.55,7.23
					h59.01c4.16,0,7.55-3.24,7.55-7.23V89.03C98.67,88.95,98.63,88.87,98.56,88.83z"/>
				<path class="st2" d="M134.19,93.71c-0.72-0.92-2.41-1.13-4.3-1.36c-2.75-0.33-7.34-0.87-10.6-4.01
					c-2.01-1.95-3.39-4.53-5.13-7.79l-0.47-0.89c-1.48-2.78-3.23-6.06-5.72-9.85c-0.01-0.03-0.01-0.06-0.03-0.09
					c-1.08-1.75-0.31-8.18,0.26-11.41c0-0.18,0-0.73-0.52-1.07c-0.95-0.61-4.68-1.13-11.09-1.55c-0.61-0.63-1.22-1.24-1.85-1.83
					c-0.07-0.07-0.14-0.14-0.21-0.2c-0.42-0.39-0.84-0.77-1.27-1.15c-0.09-0.08-0.17-0.15-0.26-0.23c-1.19-1.04-2.42-2.03-3.68-2.96
					c-0.21-0.16-0.42-0.31-0.63-0.46c-0.28-0.2-0.57-0.4-0.85-0.6c-0.41-0.28-0.81-0.55-1.22-0.82c-0.14-0.09-0.28-0.19-0.42-0.28
					c-1.38-0.88-2.74-1.67-4.05-2.36c-0.03-0.02-0.05-0.05-0.08-0.06c-9.63-5.06-16.93-5.35-17-5.35c-0.34,0-0.61,0.12-0.89,0.4
					c-0.09,0.11-0.2,0.25-0.3,0.48c-0.23,0.53-0.34,1.48,0.32,3.51c0.82,2.58,2.87,6.87,7.46,14.13l0.06,0.08
					c0,0,0.01,0.01,0.02,0.01c4.01,6.41,8.72,13.01,11.36,15.85c1.26,1.34,2.93,2.8,4.83,4.27c-0.46,1.99-0.86,6.31,3.01,9.79
					l0.1,0.07c0.18,0.09,0.41,0.2,0.67,0.2h0h0c0.3,0,0.64-0.15,0.86-0.37c0.03-0.03,2-2.09,2.65-4.6
					c4.36,2.79,8.83,5.28,12.06,6.81c4.91,2.39,8.13,5.95,9.59,10.56c0.16,0.55,0.32,1.12,0.48,1.7c0.15,0.55,0.31,1.1,0.46,1.63
					c0.94,3.45,1.44,5.27,2.38,5.86l-0.39,0.39l1.22-0.11c1.19-0.1,1.55-1.3,2.16-3.3l0.13-0.43c0.52-1.74,1.12-3.72,2.05-5.17
					c0.01-0.02,0.03-0.03,0.04-0.05c0.03-0.02,0.08-0.03,0.11-0.05l0.14-0.11c0.96-1.11,2.94-1.81,4.55-2.37l0.15-0.06
					c2.23-0.85,4.33-1.66,4.32-3.56C134.64,94.42,134.47,94.02,134.19,93.71z M89.9,79.64l0.57,0.39c0.46,0.32,0.95,0.65,1.43,0.98
					c0.39,0.27,0.78,0.54,1.18,0.8c-0.09,1.35-0.91,2.7-1.49,3.49C89.85,83.22,89.76,80.97,89.9,79.64z M95.02,80.37
					c-0.01-0.01-0.01-0.02-0.02-0.03l-0.19-0.15h-0.05c-0.25-0.16-0.5-0.32-0.73-0.48c-3.72-2.51-7.15-5.14-9.27-7.42
					c-2.19-2.31-6.5-8.3-10.51-14.58c2.35-1.27,4.07-2.86,5.32-4.53c7.63,6.54,13.91,12.87,18.65,18.8
					c10.82,13.41,19.46,23.18,25.07,28.37c-0.89,1.47-1.44,3.31-1.89,4.83l-0.16,0.55c-0.09,0.26-0.16,0.54-0.24,0.8
					c-0.39-1.14-0.78-2.64-0.93-3.25c-0.31-1.17-0.63-2.33-0.95-3.44c-1.71-5.32-5.36-9.32-10.84-11.88
					C104.82,86.34,99.75,83.49,95.02,80.37z M98.91,58.17c2.88,0.21,5.61,0.55,6.92,0.86c-0.28,1.5-0.67,4.21-0.7,6.73
					C103.38,63.39,101.34,60.86,98.91,58.17z M130.42,95.95c-0.07,0.03-0.14,0.05-0.21,0.08c-0.07,0.02-0.13,0.05-0.2,0.07
					c-0.25,0.09-0.47,0.17-0.63,0.23c-0.02,0.01-0.03,0.01-0.04,0.02c0,0,0,0,0,0c-0.28,0.1-0.56,0.21-0.85,0.32
					c-0.24,0.09-0.48,0.19-0.71,0.28c-0.07,0.03-0.13,0.06-0.2,0.08c-1.07,0.45-2.04,0.93-2.83,1.54
					c-5.48-5.12-14.04-14.8-24.77-28.02c-4.9-6.06-11.35-12.54-19.18-19.25c0.3-0.57,0.56-1.15,0.8-1.74c0-0.01,0.01-0.02,0.01-0.03
					c0.04-0.11,0.09-0.23,0.13-0.34c0.23-0.59,0.41-1.16,0.56-1.7c4.58,2.51,8.91,5.88,12.88,10.01v0.1l0.59,0.59
					c0.98,1.03,1.93,2.07,2.84,3.11c0,0,0.01,0.01,0.01,0.01c0.22,0.25,0.42,0.5,0.64,0.75c6.88,8.17,10.24,14.64,12.36,18.73
					c1.84,3.58,3.57,6.75,6.02,9.18c3.83,3.72,8.94,4.31,12.07,4.67c0.62,0.08,1.93,0.25,2.51,0.42c-0.3,0.27-1.06,0.6-1.74,0.86
					C130.46,95.94,130.44,95.94,130.42,95.95z M66.02,41.73c3.61,0.53,6.92,1.53,9.71,2.6c0.23,0.09,0.47,0.19,0.71,0.28
					c0.12,0.05,0.23,0.1,0.35,0.14c1.12,0.46,2.29,1,3.49,1.61c-0.05,0.18-0.08,0.37-0.13,0.55c-0.01,0.03-0.02,0.07-0.03,0.1
					c-0.4,1.36-0.98,2.67-1.74,3.9c-0.02,0.03-0.02,0.07-0.04,0.1c-1.28,2.01-3.02,3.62-5.23,4.78c-3.25-5.22-5.13-8.82-6.14-11.17
					C66.35,43.14,66.11,42.23,66.02,41.73z"/>
				<path class="st2" d="M75.49,50.87c0.7,0,1.4-0.28,1.95-0.84c0.54-0.55,0.84-1.29,0.82-2.04c-0.02-0.72-0.32-1.38-0.84-1.87
					c-1.11-1.1-2.79-1.09-3.89,0.02c-1.11,1.11-1.1,2.79,0.01,3.9C74.1,50.59,74.8,50.87,75.49,50.87z M75.98,47.88
					c-0.27,0.27-0.79,0.27-1.06,0c-0.13-0.13-0.2-0.32-0.21-0.53c0-0.21,0.07-0.4,0.2-0.53c0.14-0.14,0.34-0.21,0.53-0.21
					s0.39,0.07,0.53,0.2C76.25,47.09,76.25,47.61,75.98,47.88z"/>
				<path class="st2" d="M44.48,90.2c0-0.83-0.67-1.5-1.5-1.5s-1.5,0.67-1.5,1.5c0,0.82,0.67,1.5,1.5,1.5S44.48,91.02,44.48,90.2z"
					/>
				<circle class="st2" cx="44.26" cy="99.94" r="1.5"/>
				<path class="st2" d="M89.37,87.37c0-0.55-0.47-1.02-1.02-1.02h-1.02l-2.28-0.71l-3.77-3.14c-0.55-0.47-1.18-0.71-1.88-0.71
					H66.07c-1.02,0-1.8,0.78-1.8,1.8v13.5c0,0.55,0.47,1.02,1.02,1.02c0.55,0,1.02-0.47,1.02-1.02v-2.75l1.41-0.78l1.26,3.84
					c0.16,0.39,0.55,0.71,0.94,0.71c0.08,0,0.24,0,0.31-0.08c0.55-0.16,0.78-0.71,0.63-1.26l-1.33-4.16l1.02-0.55l5.1,0.63
					l-0.71,4.39c-0.08,0.55,0.31,1.02,0.86,1.1c0.08,0,0.08,0,0.16,0c0.47,0,0.94-0.39,0.94-0.86l0.55-4.32l1.33,0.24v3.92
					c0,0.55,0.47,1.02,1.02,1.02c0.55,0,1.02-0.47,1.02-1.02v-4.16l0.63-0.78l1.49,0.08c0.55,0.39,1.65,1.33,2.35,1.73l0.55,0.31
					c0.31,0.16,0.63,0.24,0.94,0.16l1.02-0.31c0.55-0.16,0.86-0.63,0.86-1.18l-0.08-4.71C88.98,88.31,89.37,87.92,89.37,87.37z
					 M86.47,92.55l-0.24-0.16c-0.63-0.39-1.96-1.41-2.35-1.8c-0.16-0.16-0.39-0.24-0.55-0.24l-2.28-0.08c0,0,0,0-0.08,0
					c-0.31,0-0.55,0.16-0.78,0.39l-0.63,0.78l-1.88-0.31l-7.3-0.86c-0.24,0-0.39,0-0.55,0.08l-3.53,1.88v-8.4h13.26
					c0.24,0,0.39,0.08,0.63,0.24l3.92,3.3c0.08,0.08,0.24,0.16,0.39,0.16l2.2,0.63l0.08,4.32L86.47,92.55z"/>
			</g>
		</g>
	</g>
</switch>
</svg>
