<svg xmlns="http://www.w3.org/2000/svg" xml:space="preserve" style="enable-background:new 0 0 150 150" viewBox="0 0 150 150"><circle cx="74.8" cy="75.1" r="74.1" style="fill:#fff"/><path d="M57.2 108.3c.4 1.6-.4 4.9-1.6 7.3-1.3 2.4-2.2 4.4-2 4.5.2.1.6.3 1 .6.4.2 1.5-1 2.4-2.8.9-1.7 2.1-1.3 2.7.9.5 2.2 1.1 4 1.3 4 .2 0 .7-.2 1.2-.3.5-.1.4-2.1-.2-4.4-.5-2.3.5-3.5 2.2-2.5 1.8 1 3.3 1.6 3.4 1.4.1-.2.3-.6.6-1 .2-.4-1.5-1.7-3.8-3-2.3-1.2-4.6-4.1-5.1-6.3-.5-2.3.3-6.1 1.8-8.5 1.5-2.4 3.4-1.6 4.2 1.9.8 3.5 1.6 6.3 1.8 6.2.2 0 .7-.2 1.2-.3.4-.1 0-3.5-.9-7.6-1-4.1-.8-8.9.3-10.7 1.1-1.8 2.5-1.4 3 1 .5 2.3 1.1 4.2 1.3 4.1.2 0 .6-.1.9-.2.3-.1.7-.1.8-.1.1 0 .6.2 1.1.3.4.1 1.3-1.8 2-4.3.6-2.5 2-3 3.1-1.2s1 6.9-.1 11.2c-1.1 4.3-1.9 7.9-1.7 8 .2 0 .7.2 1.1.3.4.1 1.6-2.8 2.5-6.5 1-3.7 2.9-4.7 4.4-2.2 1.5 2.5 2.1 6.5 1.5 9-.6 2.5-3 5.4-5.3 6.6-2.3 1.2-4.1 2.3-4 2.4.1.2.3.6.5 1.1.2.4 1.8 0 3.6-.9s2.8.2 2.2 2.6c-.6 2.3-.9 4.3-.8 4.3.2 0 .7.2 1.2.3.4.1 1.3-1.6 1.9-3.8.6-2.2 1.8-2.6 2.7-.9.9 1.8 1.8 3.1 1.9 3l.8-.4.7-.4c.2-.1-.7-2.1-1.9-4.5s-1.9-5.9-1.4-7.7c.5-1.8 2.8-.1 5.1 3.9l1.1 1.9c2.3 4 4.4 7.1 4.6 7 .2-.1.6-.4 1-.6.4-.2-1.2-3.7-3.5-7.6l-.8-1.4c-2.3-4-2.9-6.9-1.3-6.5 1.6.4 4.2 2.6 5.7 4.8 1.5 2.2 2.9 4 3 3.9.2-.1.6-.4 1-.7.4-.3-.2-1.8-1.3-3.4-1.1-1.6-.2-2.5 2-1.9 2.2.6 4.1.9 4.1.7 0-.2.2-.7.3-1.1.1-.4-1.7-1.3-4-1.9-2.3-.6-2.9-2-1.2-3.1s2.9-2.2 2.8-2.3c-.1-.2-.4-.6-.7-1-.3-.4-2.2.5-4.4 1.9-2.1 1.5-5.7 2.2-8 1.6-2.2-.6-5.3-3.1-6.7-5.5-1.5-2.5.2-3.8 3.6-2.9 3.4.9 6.3 1.5 6.3 1.3 0-.2.2-.7.3-1.1.1-.4-3.1-1.7-7.2-2.7-4.1-1.1-8.3-3.4-9.4-5.2-1.1-1.8-.1-2.8 2.2-2.2 2.3.6 4.2.9 4.3.7l.1-.5.1-.1.3-.5.2-.3.3-.4c.2-.2-1.1-1.8-2.9-3.7-1.8-1.8-1.5-3.3.6-3.3s6.4 2.6 9.5 5.8c3.1 3.2 5.8 5.7 5.9 5.6l.8-.8c.3-.3-1.6-2.8-4.3-5.5-2.7-2.7-2.5-4.9.3-4.9 2.9 0 6.7 1.5 8.4 3.4 1.8 1.8 3.1 5.4 2.9 8-.2 2.6-.2 4.7 0 4.7s.7.1 1.2.1 1-1.6 1.1-3.6c.1-2 1.6-2.2 3.3-.5 1.7 1.7 3.2 3 3.3 2.9l.8-.8c.3-.3-.7-1.9-2.3-3.6-1.6-1.6-1.3-2.9.7-2.7 2 .1 3.6.1 3.6-.1s0-.7.1-1.2c0-.5-2.2-1-4.9-1.2-2.7-.2-6-1.4-7.3-2.8-1.3-1.3 1.4-2.4 6-2.4h2.2c4.6 0 8.4-.4 8.4-1.1 0-.7-3.7-1.2-8.4-1.3H117c-4.6 0-7.4-1-6.2-2.2 1.2-1.2 4.4-2.2 7.1-2.4 2.7-.1 4.9-.4 4.9-.6 0-.2 0-.7-.1-1.2 0-.5-1.7-.7-3.6-.6-2 .1-2.2-1.1-.6-2.7s2.6-3.3 2.2-3.8c-.5-.5-2.2.5-3.9 2.2-1.7 1.7-3.2 1.4-3.3-.6-.1-2-.3-3.6-.5-3.6s-.7 0-1.2.1c-.5 0-.7 2.2-.6 4.7.1 2.6-1.1 6-2.8 7.6-1.7 1.6-5.3 2.9-8.2 2.9-2.9 0-3.1-2.1-.6-4.6 2.5-2.5 4.5-4.6 4.4-4.8l-.8-.8c-.3-.3-3 1.8-6 4.8-3 2.9-7.2 5.3-9.3 5.3-2.1 0-2.5-1.4-.8-3.1 1.7-1.7 3-3.1 2.9-3.3l-.3-.3-.1-.1-.3-.5-.1-.3s-.1-.2-.1-.5c-.1-.3-2.1 0-4.6.6-2.5.6-3.6-.4-2.5-2.2 1.1-1.8 5.6-4.1 10-5.1 4.3-1 7.9-2 7.8-2.2 0-.2-.2-.7-.3-1.2-.1-.4-3.2-.1-7 .8-3.7.9-5.5-.4-4-2.8s4.8-4.9 7.2-5.5c2.5-.6 6.2.2 8.3 1.7 2.1 1.5 3.9 2.6 4 2.5.1-.2.4-.6.7-1 .3-.4-.9-1.6-2.5-2.8-1.6-1.2-1.1-2.6 1.3-3.1 2.3-.5 4.2-1.1 4.2-1.3 0-.2-.2-.7-.3-1.2-.1-.5-2-.4-4.3.1-2.2.5-3.1-.4-2-2s2-3 1.8-3.1c-.2-.1-.6-.4-1-.7-.4-.3-2 1.3-3.5 3.5-1.6 2.2-4.4 4.4-6.2 4.8-1.8.4-1.3-2.4 1.1-6.3l1.1-1.8c2.4-3.9 4.3-7.2 4.1-7.3-.2-.1-.6-.4-1-.6-.4-.2-2.7 2.8-5.1 6.7l-.8 1.4c-2.4 3.9-4.7 5.8-5.1 4.2-.4-1.6.4-4.9 1.6-7.3 1.3-2.4 2.2-4.4 2-4.5-.2-.1-.6-.3-1-.6-.4-.2-1.5 1-2.4 2.8-.9 1.7-2.1 1.3-2.6-.9s-1.1-4-1.3-4c-.2 0-.7.2-1.2.3-.5.1-.4 2.1.2 4.4.5 2.3-.5 3.5-2.2 2.5-1.8-1-3.3-1.6-3.4-1.4-.1.2-.3.6-.6 1-.2.4 1.5 1.7 3.7 3 2.3 1.2 4.6 4.1 5.1 6.3.5 2.3-.3 6.1-1.8 8.5-1.5 2.4-3.4 1.6-4.2-1.9-.8-3.5-1.6-6.3-1.8-6.2-.2 0-.7.2-1.2.3-.4.1 0 3.5.9 7.6 1 4.1.8 8.9-.3 10.7-1.1 1.8-2.5 1.4-3-1-.5-2.3-1.1-4.2-1.3-4.1-.2 0-.6.1-.9.2-.3.1-.7.1-.8.1-.1 0-.6-.2-1.1-.3-.4-.1-1.3 1.8-2 4.3-.6 2.5-2 3-3.1 1.2s-1-6.9.1-11.2c1.1-4.3 1.9-7.9 1.7-8-.2 0-.7-.2-1.1-.3-.4-.1-1.6 2.8-2.5 6.5-1 3.7-2.9 4.7-4.4 2.2-1.5-2.5-2.1-6.5-1.5-8.9.6-2.5 3-5.4 5.3-6.6 2.3-1.2 4.1-2.3 4-2.4-.1-.2-.3-.6-.5-1.1-.2-.4-1.8 0-3.6.9s-2.8-.2-2.2-2.6c.6-2.3.9-4.3.8-4.3-.2-.1-.7-.2-1.1-.3-.4-.1-1.3 1.6-1.9 3.8-.6 2.2-1.8 2.6-2.7.8-.9-1.8-1.8-3.1-1.9-3-.2.1-.6.3-1.1.5-.4.2.3 2.4 1.5 4.8s1.8 5.9 1.4 7.7c-.5 1.8-2.8.1-5.1-3.9L51.9 36c-2.3-4-4.4-7.1-4.5-7-.2.1-.6.4-1 .6-.4.2 1.2 3.7 3.5 7.6l.8 1.4c2.3 4 2.9 6.9 1.3 6.5-1.6-.4-4.1-2.6-5.7-4.8-1.5-2.2-2.9-4-3.1-3.9-.2.1-.6.4-1 .7-.4.3.2 1.8 1.3 3.4 1.1 1.6.2 2.5-2 1.9-2.2-.6-4.1-.9-4.1-.7 0 .2-.2.7-.3 1.1-.1.4 1.7 1.3 4 1.9 2.3.6 2.9 2 1.2 3.1s-2.9 2.2-2.8 2.3c.1.2.4.6.7 1 .3.4 2.2-.5 4.4-1.9 2.1-1.4 5.7-2.2 8-1.6 2.2.6 5.3 3.1 6.7 5.5 1.5 2.5-.2 3.8-3.6 2.9-3.4-.9-6.3-1.5-6.3-1.3 0 .2-.2.7-.3 1.1-.1.4 3.1 1.7 7.2 2.7 4.1 1.1 8.3 3.4 9.4 5.2 1.1 1.8.1 2.8-2.2 2.2-2.3-.6-4.2-.9-4.3-.7l-.1.5-.1.1-.4.5-.1.3-.3.4c-.2.2 1.1 1.8 2.9 3.7 1.8 1.8 1.5 3.3-.6 3.3s-6.4-2.7-9.5-5.8c-3.1-3.2-5.8-5.7-5.9-5.6l-.8.8c-.3.3 1.6 2.8 4.3 5.5 2.7 2.7 2.5 4.9-.3 4.9-2.9 0-6.7-1.5-8.4-3.3-1.8-1.8-3.1-5.4-2.9-8 .2-2.6.2-4.7 0-4.7s-.7-.1-1.2-.1-1 1.6-1.1 3.6c-.1 2-1.6 2.2-3.3.5-1.7-1.7-3.2-3-3.3-2.9l-.8.8c-.3.3.7 1.9 2.3 3.6 1.6 1.6 1.3 2.9-.6 2.7-2-.1-3.6-.1-3.6.1s-.1.7-.1 1.2 2.2 1 4.9 1.2c2.7.2 6 1.5 7.3 2.8 1.3 1.3-1.4 2.4-6 2.4h-2.2c-4.6 0-8.4.5-8.4 1.1 0 .6 3.7 1.2 8.4 1.3h1.6c4.6 0 7.4 1 6.2 2.2-1.2 1.2-4.4 2.2-7.1 2.4-2.7.1-4.9.4-4.9.6 0 .2 0 .7.1 1.2 0 .5 1.6.8 3.6.6 2-.1 2.2 1.1.6 2.7s-2.9 3-2.7 3.2l.8.8c.3.3 2-.8 3.7-2.5 1.7-1.7 3.2-1.4 3.3.6.1 2 .4 3.6.5 3.6.2 0 .7 0 1.2-.1.5 0 .7-2.2.6-4.7-.1-2.6 1.1-6 2.8-7.6 1.6-1.6 5.3-2.9 8.2-2.9 2.9 0 3.1 2.1.6 4.6-2.5 2.5-4.5 4.6-4.4 4.8l.8.8c.3.3 3-1.8 6-4.8 3-2.9 7.2-5.3 9.3-5.3 2.1 0 2.5 1.4.8 3.1-1.7 1.7-3 3.1-2.9 3.3l.3.3v.2l.1.5.2.2c.1 0 .2.2.3.4.1.3 2.1 0 4.6-.6 2.5-.6 3.6.4 2.5 2.2-1.1 1.8-5.6 4.1-10 5.1s-7.9 2-7.8 2.2c0 .2.2.7.3 1.2.1.4 3.2.1 6.9-.8s5.5.4 4 2.8-4.8 4.9-7.2 5.5c-2.5.6-6.2-.2-8.3-1.7-2.1-1.5-3.9-2.6-4-2.5-.1.2-.4.6-.7 1-.3.4.9 1.6 2.5 2.8 1.6 1.2 1.1 2.6-1.3 3.1-2.3.5-4.2 1.1-4.2 1.3 0 .2.2.7.3 1.2.1.5 2 .4 4.3-.1 2.2-.5 3.1.4 2 2s-2 3-1.8 3.1c.2.1.6.4 1 .7.4.3 2-1.3 3.5-3.5 1.6-2.2 4.4-4.4 6.2-4.8 1.8-.4 1.3 2.4-1.1 6.3l-1.1 1.9c-2.4 3.9-4.3 7.2-4.1 7.3.2.1.6.4 1 .6.4.2 2.7-2.8 5.1-6.7l.8-1.4c2.3-3.9 4.6-5.8 4.9-4.2zM75.5 64c.6 2.6.5 5.6-.2 6.7-.7 1.1-1.8 1.2-2.4.2-.6-1-.5-4 .2-6.7s1.8-2.8 2.4-.2zm1.7 8.1c.6-.9 2.9-2.2 5.1-2.7 2.2-.5 2.8.3 1.3 1.8-1.5 1.5-3.8 2.7-5.1 2.7-1.3 0-1.9-.8-1.3-1.8zm-7.3 1.7c-1.1 0-3.4-1.4-5-3s-1.2-2.5.9-2 4.3 1.9 5 3c.6 1.1.2 2-.9 2zm4.6.7.2.3v.4l-.2.3-.3.2h-.4l-.4-.2-.2-.3.4-.2h-.4v-.2l.2-.3.3-.2h.3l.5.2zm2.8 3.8c-.7-1.1-.3-2 .9-2 1.1 0 3.4 1.4 5 3s1.2 2.5-.9 2c-2.1-.6-4.3-1.9-5-3zm-6.5-.3c-.6 1-2.9 2.2-5.1 2.7-2.2.5-2.8-.3-1.3-1.8 1.5-1.5 3.8-2.7 5.1-2.7 1.4 0 1.9.8 1.3 1.8zm1.7 8.1c-.6-2.6-.5-5.6.2-6.7.7-1.1 1.8-1.2 2.4-.2.6 1 .5 4-.2 6.7s-1.8 2.8-2.4.2z"/></svg>