<svg xmlns="http://www.w3.org/2000/svg" xml:space="preserve" style="enable-background:new 0 0 150 150" viewBox="0 0 150 150"><switch><g><circle cx="74.78" cy="75.06" r="74.06" style="fill:#fff"/><path d="M118.35 74.32c-.6-1.39-1.2-2.64-1.8-3.7-1.94-3.48-2.63-6.35-2.83-8.44a3.688 3.688 0 0 0 2.77-3.56v-1.97c0-2.04-1.66-3.69-3.69-3.69H97.38c-2.04 0-3.69 1.66-3.69 3.69v1.97a3.68 3.68 0 0 0 2.77 3.56c-.2 2.09-.89 4.97-2.83 8.44-.59 1.06-1.2 2.31-1.8 3.7-1.75 4.07-2.63 8.49-2.63 13.12v22.91c0 1.77.61 3.4 1.62 4.71h-5.67V55.79c0-.61.17-1.21.48-1.74l4.65-7.69 3.04 5c.43.71 1.35.93 2.06.5.71-.43.93-1.35.5-2.06l-4.1-6.75.01-6.03c0-1.34-.52-2.6-1.46-3.55S88.12 32 86.78 32H60.14c-2.76 0-5.01 2.25-5.01 5.01v6.04l-5.36 8.87a8.807 8.807 0 0 0-1.27 4.56v58.64H35.25c-3.11 0-5.64-2.53-5.64-5.64v-.63h11.93c1.84 0 3.33-1.5 3.33-3.33v-9.66c0-1.84-1.5-3.33-3.33-3.33H29.61v-6.38h15.5c.83 0 1.5-.67 1.5-1.5s-.67-1.5-1.5-1.5h-7.18L35 68.91a5.268 5.268 0 0 0-2.55-3.51 5.273 5.273 0 0 0-4.32-.4 5.263 5.263 0 0 0-2.98 7.33l5.43 10.83H24.5c-.83 0-1.5.67-1.5 1.5s.67 1.5 1.5 1.5h2.12v23.33c0 4.77 3.88 8.64 8.64 8.64h14.76c.13 0 .26-.02.38-.05H113.3c4.25 0 7.71-3.46 7.71-7.71V87.44c-.02-4.64-.91-9.05-2.66-13.12zm-84.49 8.7-6.04-12.06c-.3-.59-.32-1.25-.07-1.86s.73-1.07 1.35-1.28 1.28-.16 1.86.17c.57.33.96.86 1.1 1.51l2.8 13.64h-.95c-.02-.05-.03-.08-.05-.12zm7.68 12.49c.18 0 .33.15.33.33v9.66c0 .18-.15.33-.33.33H29.61V95.51h11.93zm55.15-38.88c0-.38.31-.69.69-.69h15.42c.38 0 .69.31.69.69v1.97c0 .38-.31.69-.69.69H97.38c-.38 0-.69-.31-.69-.69v-1.97zm-4.46 29.5h16.22c.46 0 .84.38.84.84v17.64c0 .46-.38.84-.84.84H92.2V87.44c0-.44.01-.87.03-1.31zM58.14 37.01c0-1.11.9-2.01 2.01-2.01h26.63c.54 0 1.04.21 1.42.59.38.38.59.89.59 1.42l-.01 4.96H58.14v-4.96zm-.66 7.96h30.13l-4.55 7.54c-.08.14-.15.29-.22.43H52.67l4.81-7.97zm-5.97 11.51c0-.18.02-.36.04-.54h30.6v59.12H51.51V56.48zm66.48 53.87c0 2.59-2.11 4.71-4.71 4.71H96.91c-2.59 0-4.71-2.11-4.71-4.71v-1.9h16.25c2.12 0 3.84-1.72 3.84-3.84V86.97c0-2.12-1.72-3.84-3.84-3.84H92.5a29.05 29.05 0 0 1 2.1-7.63c.56-1.3 1.12-2.45 1.66-3.43 2.22-3.98 3-7.34 3.21-9.77h11.27c.21 2.44.99 5.79 3.21 9.77.54.97 1.1 2.13 1.66 3.43 1.59 3.7 2.39 7.71 2.39 11.94v22.91z" style="fill:#020203"/></g></switch></svg>