<svg xmlns="http://www.w3.org/2000/svg" xml:space="preserve" id="Laag_1" x="0" y="0" style="enable-background:new 0 0 150 150" version="1.1" viewBox="0 0 150 150"><style id="style3749" type="text/css">.st4,.st5{fill:#f7a82a;stroke:#1d1d1b;stroke-width:2.285;stroke-miterlimit:10}.st5{fill:#fff;stroke:#fff;stroke-width:.554}</style><path id="path3756" d="M116.9 76c0 2.3-3.3 4.2-3.7 6.4-.3 2.2 2.2 5.1 1.5 7.2-.7 2.1-4.5 3-5.5 4.9-1 2 .5 5.5-.8 7.3-1.3 1.8-5.2 1.4-6.7 3-1.6 1.6-1.2 5.4-3 6.7-1.8 1.3-5.3-.2-7.3.8s-2.8 4.8-4.9 5.5c-2.1.7-5-1.9-7.2-1.5-2.2.3-4.1 3.7-6.4 3.7-2.3 0-4.2-3.3-6.4-3.7-2.2-.3-5.1 2.2-7.2 1.5-2.1-.7-3-4.5-4.9-5.5-2-1-5.5.5-7.3-.8-1.8-1.3-1.4-5.2-3-6.7-1.6-1.6-5.4-1.2-6.7-3-1.3-1.8.2-5.3-.8-7.3s-4.8-2.8-5.5-4.9c-.7-2.1 1.9-5 1.5-7.2-.3-2.2-3.7-4.1-3.7-6.4 0-2.3 3.3-4.2 3.7-6.4.3-2.2-2.2-5.1-1.5-7.2.7-2.1 4.5-3 5.5-4.9 1-2-.5-5.5.8-7.3 1.3-1.8 5.2-1.4 6.7-3 1.6-1.6 1.2-5.4 3-6.7 1.8-1.3 5.3.2 7.3-.8s2.8-4.8 4.9-5.5c2.1-.7 5 1.9 7.2 1.5 2.2-.3 4.1-3.7 6.4-3.7 2.3 0 4.2 3.3 6.4 3.7 2.2.3 5.1-2.2 7.2-1.5 2.1.7 3 4.5 4.9 5.5 2 1 5.5-.5 7.3.8 1.8 1.3 1.4 5.2 3 6.7 1.6 1.6 5.4 1.2 6.7 3 1.3 1.8-.2 5.3.8 7.3s4.8 2.8 5.5 4.9c.7 2.1-1.9 5-1.5 7.2.4 2.2 3.7 4.1 3.7 6.4z" style="fill:#f7a82a;stroke:#1d1d1b;stroke-width:1.9586;stroke-miterlimit:10"/><g id="g3766"><g id="g3764"><path id="path3758" d="M112.6 39.6c-7.2 0-9.4 5.1-9.3 8.1l4.2 40.4c.1 1.8 2 4.8 5.1 4.8 3.1 0 5.1-3 5.1-4.8l4.2-40.4c.1-3-2.1-8.1-9.3-8.1z" class="st4"/><g id="g3762"><path id="path3760" d="M122.2 106.4c0-5.3-4.3-9.6-9.6-9.6s-9.6 4.3-9.6 9.6 4.3 9.6 9.6 9.6 9.6-4.3 9.6-9.6z" class="st4"/></g></g></g><g id="g3776"><g id="g3774"><path id="path3768" d="M56.8 91.5c-.6 0-1.3-.5-1.5-1l-6.4-15.8v15.2c0 .9-.8 1.7-1.7 1.7h-1.3c-.9 0-1.7-.7-1.7-1.7V62.1c0-.9.8-1.7 1.7-1.7H47c.6 0 1.3.5 1.5 1l6.4 15.8V62.1c0-.9.7-1.7 1.7-1.7h1.3c.9 0 1.7.7 1.7 1.7v27.7c0 .9-.7 1.7-1.7 1.7h-1.1z" class="st5"/><path id="path3770" d="M74.7 60.5c.9 0 1.7.7 1.7 1.7v1.2c0 .9-.7 1.7-1.7 1.7h-7v8.6h5.8c.9 0 1.7.7 1.7 1.7v1.2c0 .9-.7 1.7-1.7 1.7h-5.8V87h7c.9 0 1.7.7 1.7 1.7v1.2c0 .9-.7 1.7-1.7 1.7h-9.9c-.9 0-1.7-.7-1.7-1.7V62.1c0-.9.7-1.7 1.7-1.7h9.9z" class="st5"/><path id="path3772" d="M94.9 75.7 97 61.9c.1-.8.9-1.4 1.7-1.4h1.3c1 0 1.8.9 1.7 1.9l-4.4 27.7c-.1.7-.9 1.4-1.7 1.4h-1.1c-.7 0-1.5-.6-1.6-1.3l-2.4-14.7L88 90.2c-.1.7-.9 1.3-1.6 1.3h-1c-.8 0-1.5-.6-1.6-1.4l-4.5-27.7c-.1-1 .6-1.9 1.6-1.9h1.3c.8 0 1.5.6 1.7 1.4L86 75.8l2.4-14c.1-.7.9-1.3 1.6-1.3h1c.7 0 1.5.6 1.6 1.3l2.3 13.9z" class="st5"/></g></g></svg>