<?xml version="1.0" encoding="utf-8"?>
<!DOCTYPE svg PUBLIC "-//W3C//DTD SVG 1.1//EN" "http://www.w3.org/Graphics/SVG/1.1/DTD/svg11.dtd" [
	<!ENTITY ns_extend "http://ns.adobe.com/Extensibility/1.0/">
	<!ENTITY ns_ai "http://ns.adobe.com/AdobeIllustrator/10.0/">
	<!ENTITY ns_graphs "http://ns.adobe.com/Graphs/1.0/">
	<!ENTITY ns_vars "http://ns.adobe.com/Variables/1.0/">
	<!ENTITY ns_imrep "http://ns.adobe.com/ImageReplacement/1.0/">
	<!ENTITY ns_sfw "http://ns.adobe.com/SaveForWeb/1.0/">
	<!ENTITY ns_custom "http://ns.adobe.com/GenericCustomNamespace/1.0/">
	<!ENTITY ns_adobe_xpath "http://ns.adobe.com/XPath/1.0/">
]>
<svg version="1.1" xmlns:x="&ns_extend;" xmlns:i="&ns_ai;" xmlns:graph="&ns_graphs;"
	 xmlns="http://www.w3.org/2000/svg" xmlns:xlink="http://www.w3.org/1999/xlink" x="0px" y="0px" viewBox="0 0 150 150"
	 style="enable-background:new 0 0 150 150;" xml:space="preserve">
<style type="text/css">
	.st0{fill:#FFFFFF;}
	.st1{fill:#020203;}
</style>
<switch>
	<g i:extraneous="self">
		<g id="Laag_2">
			<circle class="st0" cx="74.78" cy="75.06" r="74.06"/>
		</g>
		<g id="Laag_4">
			<g>
				<path class="st1" d="M118.45,88.1c-0.03-0.75-0.57-1.56-1.46-1.62c-0.3-0.01-0.6-0.01-0.91-0.01c0.38-2.92-0.29-6.02-1.89-8.62
					c-1.06-1.75-2.53-3.32-4.27-4.57l-0.13-0.09c-0.16-0.11-0.36-0.26-0.62-0.34c-0.72-0.24-1.53,0.14-1.82,0.84
					c-0.14,0.3-0.12,0.59-0.1,0.79l0,0.04c-0.14,0.54-0.31,1.09-0.58,1.56c-0.66,1.09-1.75,2.05-3.14,2.78
					c-1.99,1.05-4.36,1.57-6.9,1.48c-1.1-0.01-2.15-0.14-3.11-0.38c-0.21-0.06-0.4-0.06-0.56-0.07c-0.01,0-0.02,0-0.03,0
					c-0.05,0-0.1,0-0.14-0.01c-1.77-0.35-3.59-0.43-5.41-0.25c-1.95,0.21-3.73,0.67-5.26,1.38c-1.43,0.63-2.7,1.49-3.76,2.56
					c-0.86,0.87-1.52,1.86-1.92,2.91l-1.09,0c-0.32-0.03-0.65,0.09-0.88,0.26c-0.25,0.17-0.39,0.4-0.5,0.56l-0.06,0.1
					c-0.18,0.26-0.27,0.58-0.26,0.88l0,4.56c0,0.65,0.43,1.23,1.02,1.41c0.03,0.01,0.06,0.02,0.1,0.03l0,22.06
					c-0.02,0.46,0.18,0.91,0.56,1.23c0.28,0.21,0.63,0.34,1.06,0.42l0.11,0.01c7.66,0,15.31,0,22.97,0l16.05,0c0.02,0,0.04,0,0.06,0
					c0.42,0,0.83-0.18,1.14-0.51c0.34-0.42,0.51-0.97,0.46-1.45l0-16.83l0-4.97c0.12-0.02,0.24-0.06,0.37-0.12
					c0.52-0.24,0.86-0.78,0.85-1.34c0-0.07,0.01-0.13,0.02-0.2c0.02-0.11,0.03-0.22,0.03-0.35L118.45,88.1z M114.21,107.8l0,7.22
					H77.76l0-20.76H92.2c7.33,0,14.67,0,22,0C114.21,98.78,114.21,103.29,114.21,107.8z M79.81,86.48c0.12-0.17,0.25-0.34,0.39-0.5
					c0.44-0.46,0.92-0.89,1.45-1.28c0.73-0.55,1.61-0.93,2.35-1.24c2.6-0.97,5.45-1.19,8.24-0.64c0.09,0.02,0.18,0.04,0.27,0.06
					c0.27,0.06,0.57,0.13,0.9,0.12c0.67,0.12,1.46,0.25,2.27,0.29c0.16,0.01,0.33,0.02,0.49,0.03c0.47,0.03,0.96,0.07,1.44,0.02
					l0.43-0.03c0.49-0.03,0.99-0.06,1.49-0.12c2.44-0.33,4.61-1.1,6.46-2.29c1.18-0.77,2.13-1.65,2.83-2.64l0.1-0.15
					c0.24-0.35,0.49-0.71,0.68-1.18c0.01-0.01,0.01-0.02,0.02-0.04c1.17,1.12,2.09,2.4,2.68,3.76c0.83,1.82,1.11,3.9,0.78,5.84
					L79.81,86.48z M115.48,89.46v1.83H76.64v-1.83H115.48z"/>
				<path class="st1" d="M100.68,98.84V96.9c0-0.29-0.23-0.52-0.52-0.52l-17.19,0c-0.63-0.03-1.18,0.33-1.43,0.89l-0.02,0.05
					c-0.18,0.53-0.17,1.05-0.17,1.52l0,12.39c-0.02,0.53,0.27,0.9,0.48,1.16c0.27,0.36,0.72,0.58,1.16,0.58c0.02,0,0.04,0,0.05,0
					l25.76,0c0.67,0.06,1.31-0.48,1.46-1.18c0.04-0.2,0.04-0.41,0.05-0.7v-10.48c-0.01-0.29,0-0.58,0-0.87
					c0-0.49,0.01-0.97-0.02-1.46l-0.01-0.14l-0.06-0.12c-0.02-0.03-0.03-0.13-0.05-0.2c-0.04-0.22-0.09-0.52-0.3-0.78
					c-0.29-0.39-0.78-0.61-1.24-0.6h-5.6c-0.29,0-0.52,0.23-0.52,0.52l0.01,1.94c0,0.29,0.23,0.52,0.52,0.52h4.27l0,3.63l0,6.93
					H84.32v-3.67c0-2.32,0-4.64,0-6.96c4.23-0.01,13.54,0,15.84,0C100.44,99.36,100.68,99.13,100.68,98.84z"/>
				<path class="st1" d="M59.36,27.7H43.63c-0.48,0-0.88,0.39-0.88,0.88v5.8l-11.4,11.4c-0.16,0.16-0.26,0.39-0.26,0.62v26.6
					c0,0.14,0.03,0.27,0.09,0.39l2.73,5.46c0.06,0.12,0.09,0.26,0.09,0.39v16.38c0,0.14-0.03,0.27-0.09,0.39l-2.73,5.46
					c-0.06,0.12-0.09,0.26-0.09,0.39v10.33c0,3.22,2.61,5.83,5.83,5.83h29.13c3.22,0,5.83-2.61,5.83-5.83v-10.33
					c0-0.14-0.03-0.27-0.09-0.39L69.07,96c-0.06-0.12-0.09-0.26-0.09-0.39V79.23c0-0.14,0.03-0.27,0.09-0.39l2.73-5.46
					c0.06-0.12,0.09-0.26,0.09-0.39v-26.6c0-0.23-0.09-0.46-0.26-0.62l-11.4-11.4v-5.8C60.23,28.09,59.84,27.7,59.36,27.7z
					 M45.67,30.61h11.65v2.91H45.67V30.61z M68.97,47.6v1.95h-2.04c-0.48,0-0.88,0.39-0.88,0.88v1.16c0,0.48,0.39,0.88,0.88,0.88
					h2.04v5.83h-2.04c-0.48,0-0.88,0.39-0.88,0.88v1.16c0,0.48,0.39,0.88,0.88,0.88h2.04v5.83h-2.04c-0.48,0-0.88,0.39-0.88,0.88
					v1.16c0,0.48,0.39,0.88,0.88,0.88h2.04v2.36c0,0.14-0.03,0.27-0.09,0.39l-2.73,5.46c-0.06,0.12-0.09,0.26-0.09,0.39V96.3
					c0,0.14,0.03,0.27,0.09,0.39l2.73,5.46c0.06,0.12,0.09,0.26,0.09,0.39v9.64c0,1.61-1.3,2.91-2.91,2.91H36.93
					c-1.61,0-2.91-1.3-2.91-2.91v-9.65c0-0.14,0.03-0.27,0.09-0.39l2.73-5.46c0.06-0.12,0.09-0.26,0.09-0.39V78.54
					c0-0.14-0.03-0.27-0.09-0.39l-2.73-5.46c-0.06-0.12-0.09-0.26-0.09-0.39v-2.36h28.26c0.48,0,0.88-0.39,0.88-0.88V67.9
					c0-0.48-0.39-0.88-0.88-0.88H34.01V61.2h28.26c0.48,0,0.88-0.39,0.88-0.88v-1.16c0-0.48-0.39-0.88-0.88-0.88H34.01v-5.83h28.26
					c0.48,0,0.88-0.39,0.88-0.88v-1.16c0-0.48-0.39-0.88-0.88-0.88H34.01V47.6c0-0.23,0.09-0.46,0.26-0.62l10.54-10.54h13.36
					l10.54,10.54C68.88,47.14,68.97,47.37,68.97,47.6z"/>
				<path class="st1" d="M51.49,76.25l-8.16,10.88c-1.31,1.75-2.04,3.92-2.04,6.12c0,5.62,4.57,10.2,10.2,10.2
					c5.62,0,10.2-4.58,10.2-10.2c0-2.19-0.73-4.37-2.04-6.12L51.49,76.25z M51.49,100.53c-4.02,0-7.28-3.27-7.28-7.28
					c0-1.57,0.52-3.12,1.46-4.37l5.83-7.77l5.83,7.77c0.94,1.25,1.46,2.8,1.46,4.37C58.78,97.26,55.51,100.53,51.49,100.53z"/>
			</g>
		</g>
	</g>
</switch>
</svg>
