<svg xmlns="http://www.w3.org/2000/svg" xml:space="preserve" style="enable-background:new 0 0 150 150" viewBox="0 0 150 150"><style>.st1{fill:#020203}</style><switch><g><circle id="Laag_2" cx="74.78" cy="75.06" r="74.06" style="fill:#fff"/><g id="Laag_4"><path d="M118.45 88.1c-.03-.75-.57-1.56-1.46-1.62-.3-.01-.6-.01-.91-.01.38-2.92-.29-6.02-1.89-8.62-1.06-1.75-2.53-3.32-4.27-4.57l-.13-.09c-.16-.11-.36-.26-.62-.34-.72-.24-1.53.14-1.82.84-.14.3-.12.59-.1.79v.04c-.14.54-.31 1.09-.58 1.56-.66 1.09-1.75 2.05-3.14 2.78-1.99 1.05-4.36 1.57-6.9 1.48-1.1-.01-2.15-.14-3.11-.38-.21-.06-.4-.06-.56-.07h-.03c-.05 0-.1 0-.14-.01-1.77-.35-3.59-.43-5.41-.25-1.95.21-3.73.67-5.26 1.38-1.43.63-2.7 1.49-3.76 2.56-.86.87-1.52 1.86-1.92 2.91h-1.09c-.32-.03-.65.09-.88.26-.25.17-.39.4-.5.56l-.06.1c-.18.26-.27.58-.26.88v4.56c0 .65.43 1.23 1.02 1.41.03.01.06.02.1.03v22.06c-.02.46.18.91.56 1.23.28.21.63.34 1.06.42l.11.01h39.08c.42 0 .83-.18 1.14-.51.34-.42.51-.97.46-1.45V94.24c.12-.02.24-.06.37-.12.52-.24.86-.78.85-1.34 0-.07.01-.13.02-.2.02-.11.03-.22.03-.35V88.1zm-4.24 19.7v7.22H77.76V94.26h36.44c.01 4.52.01 9.03.01 13.54zm-34.4-21.32c.12-.17.25-.34.39-.5.44-.46.92-.89 1.45-1.28.73-.55 1.61-.93 2.35-1.24 2.6-.97 5.45-1.19 8.24-.64l.27.06c.27.06.57.13.9.12.67.12 1.46.25 2.27.29l.49.03c.47.03.96.07 1.44.02l.43-.03c.49-.03.99-.06 1.49-.12 2.44-.33 4.61-1.1 6.46-2.29 1.18-.77 2.13-1.65 2.83-2.64l.1-.15c.24-.35.49-.71.68-1.18.01-.01.01-.02.02-.04 1.17 1.12 2.09 2.4 2.68 3.76.83 1.82 1.11 3.9.78 5.84l-33.27-.01zm35.67 2.98v1.83H76.64v-1.83h38.84z" class="st1"/><path d="M100.68 98.84V96.9c0-.29-.23-.52-.52-.52H82.97a1.48 1.48 0 0 0-1.43.89l-.02.05c-.18.53-.17 1.05-.17 1.52v12.39c-.02.53.27.9.48 1.16.27.36.72.58 1.16.58H108.8c.67.06 1.31-.48 1.46-1.18.04-.2.04-.41.05-.7v-10.48c-.01-.29 0-.58 0-.87 0-.49.01-.97-.02-1.46l-.01-.14-.06-.12c-.02-.03-.03-.13-.05-.2-.04-.22-.09-.52-.3-.78-.29-.39-.78-.61-1.24-.6h-5.6c-.29 0-.52.23-.52.52l.01 1.94c0 .29.23.52.52.52h4.27V109.98H84.32V99.35c4.23-.01 13.54 0 15.84 0 .28.01.52-.22.52-.51zM59.36 27.7H43.63c-.48 0-.88.39-.88.88v5.8l-11.4 11.4c-.16.16-.26.39-.26.62V73c0 .14.03.27.09.39l2.73 5.46c.06.12.09.26.09.39v16.38c0 .14-.03.27-.09.39l-2.73 5.46a.89.89 0 0 0-.09.39v10.33a5.83 5.83 0 0 0 5.83 5.83h29.13a5.83 5.83 0 0 0 5.83-5.83v-10.33a.86.86 0 0 0-.09-.39L69.07 96a.89.89 0 0 1-.09-.39V79.23c0-.14.03-.27.09-.39l2.73-5.46a.89.89 0 0 0 .09-.39v-26.6c0-.23-.09-.46-.26-.62l-11.4-11.4v-5.8a.87.87 0 0 0-.87-.87zm-13.69 2.91h11.65v2.91H45.67v-2.91zm23.3 16.99v1.95h-2.04c-.48 0-.88.39-.88.88v1.16c0 .48.39.88.88.88h2.04v5.83h-2.04c-.48 0-.88.39-.88.88v1.16c0 .48.39.88.88.88h2.04v5.83h-2.04c-.48 0-.88.39-.88.88v1.16c0 .48.39.88.88.88h2.04v2.36c0 .14-.03.27-.09.39l-2.73 5.46a.89.89 0 0 0-.09.39V96.3c0 .14.03.27.09.39l2.73 5.46c.06.12.09.26.09.39v9.64c0 1.61-1.3 2.91-2.91 2.91H36.93c-1.61 0-2.91-1.3-2.91-2.91v-9.65c0-.14.03-.27.09-.39l2.73-5.46a.89.89 0 0 0 .09-.39V78.54a.86.86 0 0 0-.09-.39l-2.73-5.46a.89.89 0 0 1-.09-.39v-2.36h28.26c.48 0 .88-.39.88-.88V67.9c0-.48-.39-.88-.88-.88H34.01V61.2h28.26c.48 0 .88-.39.88-.88v-1.16c0-.48-.39-.88-.88-.88H34.01v-5.83h28.26c.48 0 .88-.39.88-.88v-1.16c0-.48-.39-.88-.88-.88H34.01V47.6c0-.23.09-.46.26-.62l10.54-10.54h13.36l10.54 10.54c.17.16.26.39.26.62z" class="st1"/><path d="m51.49 76.25-8.16 10.88a10.275 10.275 0 0 0-2.04 6.12c0 5.62 4.57 10.2 10.2 10.2 5.62 0 10.2-4.58 10.2-10.2 0-2.19-.73-4.37-2.04-6.12l-8.16-10.88zm0 24.28c-4.02 0-7.28-3.27-7.28-7.28 0-1.57.52-3.12 1.46-4.37l5.83-7.77 5.83 7.77c.94 1.25 1.46 2.8 1.46 4.37-.01 4.01-3.28 7.28-7.3 7.28z" class="st1"/></g></g></switch></svg>