<svg xmlns="http://www.w3.org/2000/svg" xml:space="preserve" style="enable-background:new 0 0 150 150" viewBox="0 0 150 150"><style>.st1{fill:#020203}</style><switch><g><circle id="Laag_2" cx="74.78" cy="75.06" r="74.06" style="fill:#fff"/><g id="Laag_8"><path d="m138.63 64.96-31.85-5.18a4.86 4.86 0 0 0-.58-.83c-.14-.15-.26-.33-.35-.52l28.25-3.95c.75-.1 1.28-.85 1.2-1.68-.04-.42-.25-.8-.55-1.04-.29-.23-.64-.33-.99-.28l-40.57 5.65c-.75.05-1.33.77-1.28 1.59.02.42.2.81.49 1.07.26.24.6.36.95.35l2.2-.29c.2.39.43.75.72 1.09.05.05.09.1.13.15.59.76.51 1.89-.18 2.6-1.6 1.85-1.58 4.86.05 6.7.33.34.53.84.53 1.37.01.21-.03.42-.09.61l-.93-1.01c-.26-.28-.6-.44-.96-.44H83.61c-.56 0-1.06.38-1.27.95-.19.55-.08 1.18.3 1.6l5.64 6.44 4.38 32.35h25.26l6.03-32.09 5.82-6.64c.25-.29.39-.66.39-1.06 0-.41-.16-.81-.44-1.1-.25-.26-.58-.4-.93-.4h-21.41c-.14-.97-.55-1.86-1.18-2.57-.05-.05-.09-.1-.13-.15-.58-.76-.5-1.9.2-2.61.66-.77 1.07-1.79 1.15-2.88l30.79 5c.76.12 1.46-.41 1.58-1.18.1-.78-.41-1.5-1.16-1.62zm-40.64.35zm.41.27c.91-1.1 1.3-2.62 1.06-4.12l1.19.19c.22.7.04 1.48-.48 2.01-1.61 1.85-1.58 4.86.05 6.71.05.05.1.1.14.16.57.75.5 1.9-.17 2.57-.47.56-.82 1.24-1.01 1.97l-.47-.49c.54-.8.83-1.79.81-2.8.01-1.25-.44-2.48-1.24-3.38-.05-.05-.09-.1-.13-.15-.57-.73-.52-1.82.11-2.51l.14-.16zm1.51 15.4v28.26h-4.88l-3.79-28.26h8.67zm-5.66-7.06 3.71 4.05H90.4l-3.55-4.05h7.4zm8.07-14.86s0-.01 0 0a.555.555 0 0 0-.06-.08c-.02-.03-.05-.06-.07-.09l.86-.12c.03.13.07.27.12.42l-.85-.13zm-.08 9.34c-.05-.05-.09-.1-.13-.15-.59-.76-.5-1.9.2-2.61.8-.93 1.22-2.2 1.17-3.52l1.22.2c0 .53-.2 1.04-.56 1.4l-.01.01c-1.61 1.85-1.59 4.85.03 6.69l.29.32c.44.75.31 1.77-.29 2.38-.5.59-.87 1.32-1.07 2.11l-1.33 1.59c-.02-.11-.03-.22-.02-.34.01-.51.21-.98.57-1.36 1.58-1.87 1.56-4.87-.07-6.72zm.41 40.85V80.98H121l-5.32 28.26h-13.03zm1.84-31.28 3.3-4.05h17.78l-3.5 4.05h-17.58z" class="st1"/><path d="m82.04 105.99-.35-.07c-.59-.12-1.06-.22-1.4-.44-.36-.24-.78-.67-1.11-2.03-.5-2.06.19-4.94 1.21-8.8.98-3.69 2.21-8.29 2.21-13.51 0-2.28-.31-4.89-.88-7.35-.16-.77-.87-1.28-1.62-1.17-.79.1-1.36.85-1.26 1.68.01.06.02.13.03.17.54 2.3.83 4.67.83 6.67 0 4.78-1.12 9-2.12 12.73l-.1.38c-.99 3.72-1.85 6.93-1.12 9.93.43 1.79 1.23 3.07 2.35 3.81.86.57 1.71.73 2.4.86l.34.07c.67.14.89.25 1.09.53.15.21.35.82.45 1.89-4 .92-8.37 1.45-11.98 1.45-5.28 0-9.97-1.18-13.89-2.36 1.17-.64 2.16-1.3 2.97-1.96.62-.51.72-1.46.23-2.1a1.42 1.42 0 0 0-.98-.55c-.38-.05-.76.07-1.07.32-1.9 1.57-5.51 3.26-9.64 4.52-4.5 1.37-9.16 2.13-13.11 2.13-3.62 0-7.98-.53-11.98-1.45.1-1.07.3-1.68.45-1.89.18-.26.38-.37 1.09-.52l.34-.07c.69-.13 1.54-.3 2.4-.86 1.12-.74 1.91-2.02 2.35-3.81.73-3.01-.12-6.22-1.12-9.94l-.1-.38c-.99-3.73-2.12-7.95-2.12-12.72 0-2.66.56-6.91 2.13-10.88.5.11 1 .16 1.49.16 7.64 0 12.7-1.67 17.59-3.28 1.72-.57 3.34-1.1 5.05-1.56.02 0 .04-.01.06-.02 1.83.47 3.67 1.02 5.8 1.72 4.26 1.4 9.55 3.14 17.14 3.14 4.06 0 7.37-3.41 7.37-7.6s-3.3-7.6-7.37-7.6h-3.43c-4-2.39-6.13-5.4-8.19-8.31-.28-.4-.56-.79-.84-1.17-1.31-1.81-2.5-3.25-4.05-4.34-1.79-1.27-3.86-1.88-6.31-1.88-2.46 0-4.52.62-6.31 1.88-1.55 1.09-2.74 2.53-4.05 4.34-.28.38-.56.78-.84 1.17-2.06 2.91-4.19 5.92-8.19 8.31h-3.43c-4.06 0-7.37 3.41-7.37 7.6 0 2.51 1.2 4.84 3.2 6.27-1.48 3.73-2.36 8.22-2.36 12.05 0 5.21 1.23 9.82 2.21 13.52 1.03 3.85 1.71 6.73 1.21 8.79-.33 1.36-.75 1.79-1.11 2.03-.34.22-.81.32-1.42.45l-.33.07c-.89.19-2.02.55-2.82 1.66-.78 1.07-1.12 2.58-1.12 4.89 0 .68.45 1.28 1.09 1.45 4.47 1.14 9.53 1.79 13.88 1.79 4.26 0 9.2-.79 13.93-2.23 1.22-.37 2.43-.79 3.6-1.25 4.84 1.55 10.87 3.48 17.97 3.48 4.35 0 9.41-.65 13.88-1.79.64-.17 1.09-.76 1.09-1.45 0-2.31-.35-3.82-1.12-4.89-.8-1.13-1.93-1.49-2.82-1.68zM38.86 55.23c2.46-2.16 4.12-4.51 5.6-6.6l.09-.13c.24-.33.47-.66.69-.97 1.14-1.58 2.15-2.81 3.34-3.65 1.33-.94 2.77-1.36 4.67-1.36s3.34.42 4.67 1.36c1.19.84 2.2 2.07 3.34 3.65.26.36.52.72.79 1.1 1.48 2.08 3.14 4.44 5.6 6.6H38.86zm5.09 6.1c-.38 0-.74.15-1.01.42-.28.28-.43.65-.44 1.05-.01.82.64 1.5 1.46 1.51.95 0 1.89.04 2.85.13-4.57 1.49-9.36 2.99-16.37 2.99-2.5 0-4.46-2.03-4.46-4.61s1.96-4.61 4.46-4.61h45.64c2.5 0 4.46 2.03 4.46 4.61s-1.96 4.61-4.46 4.61c-7.2 0-12-1.58-16.24-2.97l-.49-.16c-4.45-1.45-9.05-2.97-15.4-2.97z" class="st1"/><path d="M51 97.88c.57.19 1.15.24 1.67.28l.07.01c.17.02.33.03.48.05l.08.01h.05c4.58-.37 8.43-1.75 11.77-4.21.72-.53 1.4-1.33 1.91-2.26.36-.65.42-1.32.18-1.88-.24-.53-.73-.9-1.39-1.04l-.72-.15c-1.52-.33-3.08-.66-4.6-.42-3.15.5-6.1 1.71-8.77 3.61-.84.6-1.56 1.32-2.07 2.07-.51.75-.65 1.58-.41 2.33.27.74.88 1.32 1.75 1.6zm1.44-2.82c1.52-1.54 3.4-2.27 5.38-3.05 1.97-.77 3.91-1.4 5.89-.74-1.98 2.32-7.88 4.3-11.27 3.79zM51.78 89.67c.27.17.58.25.93.25.43 0 .93-.13 1.47-.4.66-.32 1.32-.81 2.02-1.5 2.01-1.98 3.58-4.36 4.66-7.08.55-1.39 1.01-2.97 1.41-4.83.31-1.44-.13-2.65-1.19-3.31-1.35-.84-2.56-.13-3.35.47-.59.45-1.35 1.06-1.96 1.81-.68.81-1.31 1.68-1.93 2.51l-.04.05c-.26.35-.52.71-.79 1.06l-.02.03c-1.67 2.62-2.41 5.4-2.26 8.5.05 1.23.41 2.05 1.05 2.44zm3.94-9.78c1.04-1.64 2.02-3.19 3.58-4.21-.03 3.28-3.02 8.85-5.71 10.66-.25-2.46.91-4.54 2.13-6.45zM49.8 84.23l-.04-.16c-.13-.35-.25-.71-.36-1.06l-.02-.05c-.29-.88-.59-1.79-1.05-2.63-.43-.77-1.09-1.23-1.81-1.25-.62-.04-1.21.3-1.59.89l-.37.57c-.88 1.34-1.8 2.73-2.17 4.3-.81 3.38-.82 6.8-.02 10.15.2.82.5 1.58.89 2.19.53.84 1.25 1.33 2.04 1.37h.1c.74 0 1.46-.41 2.03-1.15a8.99 8.99 0 0 0 1.41-2.82c.98-3.21 1.29-6.59.96-10.35zm-4.44 10.84c-.77-1.45-.73-3.12-.69-4.75l.01-.25c.1-4.43.28-5.27 1.7-7.1 1.23 3.38.71 9.5-1.02 12.1z" class="st1"/></g></g></switch></svg>