<svg xmlns="http://www.w3.org/2000/svg" xml:space="preserve" style="enable-background:new 0 0 150 150" viewBox="0 0 150 150"><style>.st1{fill:#020203}</style><switch><g><circle id="Laag_2" cx="74.78" cy="75.06" r="74.06" style="fill:#fff"/><g id="Laag_1"><path d="m85.06 58.18.09-.08c-.87-1.05-1.63-1.95-1.87-3.12L79.31 35.8c.99-1.08.58-2.39.45-2.83l-.03-.11c-.14-.48-.26-.93-.35-1.32.49-.17.82-.62.82-1.13 0-1.13-.68-4.41-2.76-4.41h-7.06c-2.08 0-2.76 3.28-2.76 4.41 0 .51.33.96.82 1.13-.09.4-.2.84-.34 1.32l-.03.11c-.15.48-.54 1.75.45 2.83l-3.97 19.18c-.24 1.17-.99 2.07-1.87 3.12-1.3 1.56-2.78 3.33-2.78 6.33v49.7c0 2.42 1.97 4.39 4.39 4.39h19.26c2.42 0 4.39-1.97 4.39-4.39v-49.7c0-3.01-1.48-4.77-2.78-6.33l-.1.08zM73.91 71.25c3.57 0 6.83 3.46 8.14 8.62H65.77c1.32-5.17 4.58-8.62 8.14-8.62zm3.07-34.71L79.4 48.2c-.46.26-.88.61-1.38 1.04-1.04.89-2.21 1.9-4.11 1.9s-3.07-1.01-4.11-1.9c-.48-.41-.91-.77-1.38-1.04l2.42-11.66h6.14zm-9.09 14.28c.11.09.22.18.33.28 1.22 1.05 2.89 2.48 5.69 2.48 2.8 0 4.47-1.43 5.69-2.48.11-.09.22-.19.33-.28l.96 4.65c.37 1.77 1.39 3 2.39 4.19 1.14 1.36 2.21 2.65 2.21 4.77v15.44h-.94c-1.49-6.62-5.75-11.06-10.64-11.06-4.89 0-9.15 4.44-10.64 11.06h-.95V64.43c0-2.12 1.07-3.41 2.21-4.77v-.01c.99-1.19 2.02-2.42 2.38-4.19l.98-4.64zm2.4-21.63c.1-.32.22-.6.32-.75h6.6c.1.15.22.43.33.75h-7.25zm.11 4.49.04-.14c.21-.71.37-1.36.48-1.92h6c.1.55.27 1.19.48 1.92l.04.14c.08.25.1.36.09.42H70.3c0-.05.02-.16.1-.42zm3.51 64.65c-3.57 0-6.83-3.46-8.14-8.62h16.28c-1.31 5.17-4.57 8.62-8.14 8.62zm10.65-8.62h.94v24.42c0 1.08-.88 1.96-1.96 1.96H64.28c-1.08 0-1.96-.88-1.96-1.96V89.71h.95c1.49 6.62 5.75 11.06 10.64 11.06 4.89 0 9.16-4.44 10.65-11.06zm-22.23-2.44V82.3H85.5v4.97H62.33zM118.84 68.36l-2-2.79c.19-.31.28-.6.28-.89v-.78c0-1.12-.71-1.81-1.86-1.81H95.77c-1.14 0-1.82.68-1.82 1.81v.92c0 .22 0 .47.08.72l-2 2.79c-.64.92-.97 2.05-.97 3.35v39.68c0 1.49.93 2.86 2.36 3.49l1.62.7v1.64c0 .93.43 1.36 1.37 1.36h18.19c.89 0 1.43-.51 1.43-1.36v-1.73l1.51-.61c1.48-.65 2.48-2.05 2.48-3.49V71.68c-.01-1.35-.65-2.55-1.18-3.32zm-5.21 47.31v.58H97.44v-.58h16.19zm-8.26-13.55c-4.38 0-7.95-4.85-7.95-10.82 0-5.96 3.57-10.81 7.95-10.81s7.95 4.85 7.95 10.81c0 5.97-3.57 10.82-7.95 10.82zm-11.92-5.51h2.45c1.65 4.76 5.36 7.82 9.46 7.82s7.81-3.07 9.46-7.82h2.78v14.75c0 .54-.44 1.11-1.06 1.39l-1.54.62H95.78l-1.33-.53c-.57-.25-1-.89-1-1.49V96.61zm2.44-10.57h-2.44V72.46h24.16v13.58h-2.77c-1.65-4.77-5.36-7.85-9.47-7.85s-7.83 3.08-9.48 7.85zm-.87 5.27c0 1 .09 2 .28 2.99h-1.84v-5.96h1.84c-.19.99-.28 1.99-.28 2.97zm19.71-24.67 2.15 2.93c.12.17.23.37.32.59H93.65c.1-.23.21-.44.34-.63l2.13-2.9h18.61zm-18.52-1.82v-.98h18.42v.98H96.21zm19.5 26.49c0-.99-.09-1.98-.27-2.96h2.17v5.96l-2.17.01c.18-1 .27-2.01.27-3.01zM53.6 65.58c.19-.31.28-.6.28-.89v-.79c0-1.12-.71-1.81-1.86-1.81H32.53c-1.14 0-1.82.68-1.82 1.81v.91c0 .22-.01.48.08.73l-2 2.79c-.64.92-.97 2.05-.97 3.35v39.68c0 1.49.93 2.86 2.36 3.49l1.62.7v1.64c0 .93.43 1.36 1.36 1.36h18.19c.89 0 1.43-.51 1.43-1.36v-1.73l1.51-.61c1.48-.65 2.48-2.05 2.48-3.49V71.68c0-1.35-.64-2.55-1.17-3.31l-2-2.79zm-3.21 50.09v.58H34.2v-.58h16.19zm-20.17-7.3c4.44-.49 8.72-3.78 12.86-6.96 3.75-2.88 7.63-5.86 11.3-6.42v16.36c0 .54-.44 1.11-1.07 1.39l-1.54.62H32.55l-1.33-.53c-.57-.25-1-.89-1-1.49v-2.97zm24.11-15.81c-4.39.53-8.64 3.79-12.75 6.95-3.74 2.88-7.61 5.85-11.25 6.42V91c4.39-.53 8.64-3.79 12.76-6.95 3.74-2.87 7.61-5.84 11.25-6.42v14.93zm-24.11-3.99V72.46h24.15v2.73c-4.42.51-8.68 3.79-12.8 6.95-3.77 2.91-7.67 5.9-11.35 6.43zM51.5 66.64l2.15 2.93c.12.17.23.37.32.59H30.42c.1-.23.21-.44.34-.63l2.13-2.9H51.5zm-.11-2.8v.98H32.97v-.98h18.42z" class="st1"/></g></g></switch></svg>