<svg xmlns="http://www.w3.org/2000/svg" xml:space="preserve" style="enable-background:new 0 0 150 150" viewBox="0 0 150 150"><style>.st1{fill:#020203}</style><switch><g><circle id="Laag_2" cx="74.78" cy="75.06" r="74.06" style="fill:#fff"/><g id="Laag_5"><path d="m122.14 40.94-4.87-1.12c-.08-.01-.25-.04-.33-.05l-6 .26-6.05-1.81-.17-.02-17.52-2.67-.17-.02-9.89.05-7.52-1.67c-.42-.06-.76-.02-1.05.19-.29.22-.5.53-.56.95l-1.54 10.35-.02.17c-.02.77-.61 19.5 1.49 27.62-1.24 3.01-2.41 6.53-3.45 10.02-.43-.47-.98-.81-1.6-.97-.49-3.9-3.22-7.28-7.02-8.55-.27-2.12-1.15-4.01-2.45-5.52.93-.37 1.76-.99 2.32-1.83.69-1.03.96-2.2.86-3.29a4.96 4.96 0 0 0 2.71-1.98c.64-.96.91-2.13.8-3.28a4.96 4.96 0 0 0 2.71-1.98c.73-1.09.97-2.42.72-3.71s-.97-2.43-2.05-3.17c-.96-.65-2.11-.92-3.25-.81-.33-1.11-1.01-2.09-1.97-2.74-.96-.65-2.11-.92-3.25-.81-.33-1.11-1.01-2.09-1.97-2.74-.96-.65-2.11-.92-3.25-.81a4.964 4.964 0 0 0-1.97-2.74 4.86 4.86 0 0 0-6.77 1.33c-.69 1.03-.97 2.14-.86 3.29a4.96 4.96 0 0 0-2.71 1.98c-.64.96-.91 2.13-.8 3.28a4.96 4.96 0 0 0-2.71 1.98c-.64.96-.91 2.13-.8 3.28a4.96 4.96 0 0 0-2.71 1.98c-.64.96-.91 2.13-.8 3.28a4.96 4.96 0 0 0-2.71 1.98c-.64.96-.91 2.13-.8 3.28a4.96 4.96 0 0 0-2.71 1.98c-.77 1.16-.96 2.48-.72 3.71.24 1.24.96 2.38 2.05 3.17.96.65 2.11.92 3.25.81.33 1.11 1.01 2.09 1.97 2.74.77.52 1.68.79 2.6.82a10.339 10.339 0 0 0-2.08 5.05c-.77.21-1.5.7-1.92 1.33-.59.89-.7 2.16-.28 3.15l6.34 14.94c.52 1.58 2.07 2.65 3.84 2.65h18.45c1.64 0 3.14-.97 3.83-2.49l2.35-5.6c-.56 2.45-.89 4.08-.92 4.28l-.01.08-1.18 9.02c-.09.67.41 1.35 1.06 1.53l7.51 1.76.08.01.17.02 4.49.21 11.57 1.99 14.29 2.04.08.01 7.18.42 8.06.89c.75.11 1.43-.48 1.53-1.16l1.35-10.2c.01-.08.04-.25-.04-.35-.06-.18-2.36-17.18-1.92-26.99 2.27-8.87 7.68-26.83 7.71-26.99.01-.08.02-.17.04-.25l1.07-10.07c.05-.63-.45-1.31-1.11-1.49zM29.28 84.97h4.39l3.84 16.72h-1.03c-.62 0-1.14-.34-1.33-.89l-6.34-15.06c-.08-.23-.08-.3.06-.52.15-.23.24-.25.41-.25zm7.83-8.84c.52-.17 1.07-.7 1.07-1.32.11-4.12 3.36-7.35 7.4-7.35 3.5 0 6.5 2.49 7.3 5.79-1.66.25-3.55 1.31-4.65 3.86-.17.33-.19.69-.08 1.02.12.35.37.64.72.84.25.21.51.21.65.21.66 0 1.17-.47 1.23-1.11 1.01-2.13 2.63-2.14 3.09-2.1.12.07.24.14.37.18 2.91.63 5.2 3.05 5.75 5.99H31.34c.64-3.02 2.88-5.39 5.77-6.01zm25 8.84a.4.4 0 0 1 .11.01c.02.01.07.06.19.24.14.21.14.28.07.48l-6.27 14.9c-.28.51-.79.85-1.29.85h-1.01l3.88-16.48h4.32zm-21.64 16.48L37.4 88.61l-.86-3.64h4.25l1.13 16.48h-1.45zm10.14-16.48h4.25l-.84 3.57-3.09 12.91h-1.45l1.13-16.48zm-7.05 0h4.28l-1.14 16.72h-2l-1.14-16.72zM29.47 74.06c-.7-.48-1.07-1.24-.96-2.1.07-.51-.19-.97-.58-1.28-.45-.3-.95-.32-1.39-.06-.75.43-1.59.37-2.29-.11-1.02-.69-1.29-2.09-.59-3.06.47-.71 1.23-1.08 2.08-.97.51.07.96-.19 1.27-.58.21-.32.26-.66.2-.99-.02-.11-.05-.27-.13-.37-.42-.75-.37-1.6.11-2.31.47-.71 1.23-1.08 2.08-.97.51.07.96-.19 1.27-.58.3-.45.31-.95.06-1.41-.42-.75-.37-1.6.11-2.31.47-.71 1.23-1.08 2.08-.97.51.07.96-.19 1.27-.58.3-.45.31-.95.06-1.41-.42-.75-.37-1.6.11-2.31.47-.71 1.23-1.08 2.08-.97.51.07.96-.19 1.27-.58.3-.45.31-.95.06-1.41-.42-.75-.37-1.6.11-2.31.47-.71 1.23-1.08 2.08-.97.51.07.96-.19 1.27-.58.3-.45.31-.95.06-1.41-.42-.75-.37-1.6.11-2.31a2.173 2.173 0 0 1 3.08-.66c.7.48 1.07 1.24.96 2.1-.07.51.19.97.58 1.28.45.3.95.32 1.39.06.75-.43 1.59-.37 2.29.11s1.07 1.24.96 2.1c-.07.51.19.97.58 1.28.45.3.95.32 1.39.06.75-.43 1.59-.37 2.29.11s1.07 1.24.96 2.1c-.07.51.19.97.58 1.28.45.3.95.32 1.39.06.75-.43 1.59-.37 2.29.11 1.02.69 1.29 2.09.59 3.06-.47.71-1.23 1.08-2.08.97-.51-.07-.96.19-1.27.58-.3.45-.31.95-.06 1.41.42.75.37 1.6-.11 2.31-.47.71-1.23 1.08-2.08.97-.51-.07-.96.19-1.27.58-.3.45-.31.95-.06 1.41.42.75.37 1.6-.11 2.31-.47.71-1.23 1.08-2.08.97-.3-.04-.57.04-.81.19-1.15-.64-2.43-1.06-3.79-1.22.13-.09.25-.2.34-.34.4-.6.24-1.42-.35-1.82-.6-.41-1.41-.25-1.81.36-.38.57-.24 1.33.28 1.75-5.04.17-9.17 3.97-9.82 9.04-.72.23-1.4.55-2.03.93-.09-.13-.2-.26-.33-.37-.45-.3-.95-.32-1.39-.06-.76.43-1.6.37-2.3-.11zm90.02-22.07c-.49 1.65-5.59 18.62-7.81 27.15-.01.08-.02.17-.04.25-.37 8.11 1.03 20.59 1.69 25.58l-46.2-5.99c-.75-.11-1.43.48-1.54 1.24-.11.76.4 1.43 1.15 1.54l46.7 6.06-.99 7.68-6.79-.8-7.18-.42-14.2-2.02-11.65-2-.17-.02-4.4-.2-6.18-1.48.99-7.68c.24-1.08 3.72-17.42 7.83-27.23.13-.32.17-.58.05-.94-1.58-5.72-1.66-18.54-1.53-24.36l40.94 5.84c.75.11 1.42-.4 1.53-1.16.11-.76-.4-1.43-1.15-1.54L69.25 45.6l1.31-8.75 6.2 1.4c.08.01.17.02.33.05l9.89-.05 17.27 2.63 6.12 1.9c.17.02.33.05.42.06l6.09-.25 3.47.75-.86 8.65z" class="st1"/><path d="M74.6 39.06a.94.94 0 0 0-1.05.8l-.48 3.45c-.07.51.29.99.79 1.06.5.07.98-.29 1.05-.8l.48-3.45a.944.944 0 0 0-.79-1.06zM66.38 107.99c.5.07.98-.29 1.05-.8l.48-3.45a.944.944 0 0 0-.79-1.06.94.94 0 0 0-1.05.8l-.48 3.45c-.07.51.29.99.79 1.06zM78.69 39.65a.94.94 0 0 0-1.05.8l-.48 3.45c-.07.51.29.99.79 1.06.5.07.98-.29 1.05-.8l.48-3.45a.944.944 0 0 0-.79-1.06zM70.47 108.58c.5.07.89-.3 1.05-.8l.48-3.45a.944.944 0 0 0-.79-1.06.94.94 0 0 0-1.05.8l-.48 3.45c-.07.5.29.98.79 1.06zM82.79 40.23a.94.94 0 0 0-1.05.8l-.48 3.45c-.07.51.29.99.79 1.06.5.07.98-.29 1.05-.8l.48-3.45a.944.944 0 0 0-.79-1.06zM74.57 109.16c.5.07.89-.3 1.05-.8l.48-3.45a.944.944 0 0 0-.79-1.06.94.94 0 0 0-1.05.8l-.48 3.45c-.07.51.29.99.79 1.06zM86.88 40.81a.94.94 0 0 0-1.05.8l-.48 3.45c-.07.51.29.99.79 1.06.5.07.98-.29 1.05-.8l.48-3.45a.95.95 0 0 0-.79-1.06zM78.58 109.73c.5.07.98-.29 1.05-.8l.48-3.45a.944.944 0 0 0-.79-1.06.94.94 0 0 0-1.05.8l-.48 3.45c-.07.51.29.99.79 1.06zM90.98 41.4a.94.94 0 0 0-1.05.8l-.48 3.45c-.07.51.29.99.79 1.06.5.07.98-.29 1.05-.8l.48-3.45a.944.944 0 0 0-.79-1.06zM82.67 110.32c.5.07.98-.29 1.05-.8l.48-3.45a.944.944 0 0 0-.79-1.06.94.94 0 0 0-1.05.8l-.48 3.45c-.07.5.29.98.79 1.06zM95.07 41.98a.94.94 0 0 0-1.05.8l-.48 3.45c-.07.51.29.99.79 1.06.5.07.98-.29 1.05-.8l.48-3.45a.944.944 0 0 0-.79-1.06zM86.76 110.9c.5.07.98-.29 1.05-.8l.48-3.45a.944.944 0 0 0-.79-1.06.94.94 0 0 0-1.05.8l-.48 3.45c-.07.51.29.99.79 1.06zM107.6 43.77a.94.94 0 0 0-1.05.8l-.48 3.45c-.07.51.29.99.79 1.06.5.07.89-.3 1.05-.8l.48-3.45a.944.944 0 0 0-.79-1.06zM99.55 112.72c.5.07.98-.29 1.05-.8l.48-3.45a.944.944 0 0 0-.79-1.06.94.94 0 0 0-1.05.8l-.48 3.45c-.07.51.29.99.79 1.06zM99.16 42.56a.94.94 0 0 0-1.05.8l-.48 3.45c-.07.51.29.99.79 1.06.5.07.98-.29 1.05-.8l.48-3.45c.07-.5-.29-.98-.79-1.06zM90.86 111.48c.5.07.98-.29 1.05-.8l.48-3.45a.944.944 0 0 0-.79-1.06.94.94 0 0 0-1.05.8l-.48 3.45c-.07.51.29.99.79 1.06zM103.26 43.15a.94.94 0 0 0-1.05.8l-.48 3.45c-.07.51.29.99.79 1.06.5.07.98-.29 1.05-.8l.48-3.45a.944.944 0 0 0-.79-1.06zM95.2 112.1c.5.07.98-.29 1.05-.8l.48-3.45a.944.944 0 0 0-.79-1.06.94.94 0 0 0-1.05.8l-.48 3.45c-.07.51.29.99.79 1.06zM112.11 44.41a.94.94 0 0 0-1.05.8l-.48 3.45c-.07.51.29.99.79 1.06.5.07.98-.29 1.05-.8l.48-3.45a.944.944 0 0 0-.79-1.06zM103.81 113.33c.5.07.98-.29 1.05-.8l.48-3.45a.944.944 0 0 0-.79-1.06.94.94 0 0 0-1.05.8l-.48 3.45c-.07.51.29.99.79 1.06zM116.08 45.92l-.48 3.45c-.07.51.29.99.79 1.06.5.07.98-.29 1.05-.8l.48-3.45a.944.944 0 0 0-.79-1.06c-.5-.07-.98.3-1.05.8zM108.82 114.04c.5.07.98-.29 1.05-.8l.48-3.45a.944.944 0 0 0-.79-1.06.94.94 0 0 0-1.05.8l-.48 3.45c-.07.51.29.99.79 1.06zM97.57 57.54c-5.17-1.42-9.31 1.34-11.17 7.34-1.54 4.93-3.02 6.96-3.45 7.58-.1.07-.19.14-.2.23-.86 1.25-3.06 2.4-4.89 3.25-.92.47-1.74.87-2.4 1.29-2.16 1.41-3.59 4.9-3.35 8.11.24 3.13 2.57 6.55 5.38 7.81 1.19.6 3.56 1.37 6.32 1.76 3.84.55 9.48.49 14.6-2.64 6.84-4.44 9.98-11.03 9.63-20.02-.24-7.41-5.62-13.41-10.47-14.71zm-.3 33.12c-4.51 2.97-9.71 3-13.22 2.5-2.59-.37-4.79-1.11-5.83-1.6-1.92-.88-4.1-3.59-4.32-6.29-.24-2.53.92-5.37 2.52-6.43.56-.35 1.38-.75 2.21-1.15 2.11-1.07 4.5-2.28 5.58-3.93 0 0 .1-.07.11-.16.52-.7 2.11-2.88 3.7-8.15 1.41-4.61 4.2-6.87 7.88-6.35.33.05.75.11 1.07.24 1.86.49 3.81 1.86 5.43 3.79.78 2.04 2.16 6.47 1.87 11.6-.35 6.14-2.55 10.29-6.94 13.62-4.48 3.4-8.44 3.09-10.81 2.93-.26.05-.51.01-.76-.02-2.28-.15-5.92-1.53-6.69-2.16-.14-.19-.49-.16-.61.09-.19.14-.15.49.08.61.84.72 4.07 1.96 6.41 2.29.25.04.42.06.69-.07.26-.05.51-.01.76.02 2.45.18 6.66.52 11.43-3.1 4.66-3.46 6.9-7.87 7.28-14.25.2-3.45-.31-6.54-.91-8.87 1.05 1.94 1.75 4.18 1.83 6.51.41 8.3-2.49 14.33-8.76 18.33zM38.68 66c.6.41 1.41.25 1.81-.36.4-.6.24-1.42-.35-1.82-.6-.4-1.41-.25-1.81.36-.41.6-.25 1.41.35 1.82zM39.2 58.86c.4-.6.24-1.42-.35-1.82-.6-.41-1.41-.25-1.81.36-.4.6-.24 1.42.35 1.82.6.4 1.41.24 1.81-.36zM33.72 66.99c.4-.6.24-1.42-.35-1.82-.6-.41-1.41-.25-1.81.36-.4.6-.24 1.42.35 1.82.6.4 1.41.24 1.81-.36zM52.69 56.21c.4-.6.24-1.42-.35-1.82-.6-.41-1.41-.25-1.81.36-.4.6-.24 1.42.35 1.82.6.41 1.41.25 1.81-.36zM44.6 50.74c.4-.6.24-1.42-.35-1.82-.6-.41-1.41-.25-1.81.36-.4.6-.24 1.42.35 1.82.6.4 1.41.24 1.81-.36zM44.12 57.91c.6.41 1.41.25 1.81-.36.4-.6.24-1.42-.35-1.82-.6-.41-1.41-.25-1.81.36-.4.6-.25 1.42.35 1.82z" class="st1"/></g></g></switch></svg>