<svg xmlns="http://www.w3.org/2000/svg" xml:space="preserve" style="enable-background:new 0 0 150 150" viewBox="0 0 150 150"><style>.st1{fill:#020203}</style><switch><g><circle id="Laag_2" cx="74.78" cy="75.06" r="74.06" style="fill:#fff"/><g id="Laag_11"><path d="M128.92 86.44c-1.94-1.93-4.56-3.13-7.61-3.48l.18-1.58c.08-.46-.07-.93-.41-1.25-.34-.32-.81-.45-1.35-.32l-4.22 1.77-.93.35c-.29-1.86-.82-2.94-.86-3.01a1.39 1.39 0 0 0-1.86-.62c-.68.34-.96 1.18-.62 1.86.01.01.27.58.49 1.6l-.27-.09-4.57-1.77c-.24-.05-.49-.03-.72.04V59.46c0-.51-.28-.97-.74-1.2l-.31-.16.04-.04c-.48-.4-1.38-1.4-1.38-3.38 0-.67-.51-1.21-1.15-1.3-.17-.09-.36-.15-.56-.18-.09-.01-8.74-1.03-13.19-7-2.38-3.19-3.14-7.29-2.25-12.18.15-.81-.39-1.6-1.21-1.74-.81-.15-1.6.39-1.74 1.21-1.04 5.74-.11 10.62 2.79 14.51 1.8 2.42 4.13 4.13 6.43 5.35H69.06c-.74 0-1.34.6-1.34 1.34 0 2.51-1.45 3.45-1.64 3.57-.46.23-.74.69-.74 1.2v9.79c-1.17-2.9-2.75-5.57-4.7-7.9l-.17-.2.14-.25c.04-.06.06-.1.07-.14l4.76-11.64a1.48 1.48 0 0 0-2.02-1.89l-6.76 3.29 3.27-12.22c.16-.61-.08-1.26-.6-1.61-.53-.35-1.22-.33-1.72.05l-6.57 4.98-.07-.11L45.09 33c-.26-.39-.76-.64-1.24-.64-.5.01-.95.27-1.22.69l-5.26 8.35-6.78-4.7a1.477 1.477 0 0 0-2.24 1.68l3.88 11.92-7.47-3.1a1.55 1.55 0 0 0-.56-.11c-.41 0-.8.17-1.09.47-.42.45-.51 1.13-.23 1.68l5.67 11.08-.17.19c-5.01 5.54-7.89 13.45-7.89 21.7 0 12.16 6.61 21.31 17.24 23.89l.11.03c2.06.49 4.18.74 6.3.74 9.89 0 17.51-4.85 21.2-12.8v6.4c-.13.67.17 1.25.72 1.51.19.11 1.67 1.06 1.67 3.58 0 .74.6 1.34 1.34 1.34h29.05c.48.52.99 1.03 1.55 1.49 3.46 2.84 8.38 4.41 13.83 4.41 11.33 0 19.25-6.54 19.25-15.89-.01-4.35-1.33-7.97-3.83-10.47zM55.98 41.71l-2.8 10.52-2.76 1.34-.05-.11-2.6-5.52 8.21-6.23zm-12.04-5.17 4.76 6.98-2.22 1.69-1.23-2.61c-.24-.51-.77-.85-1.34-.85-.58 0-1.1.34-1.34.86l-.84 1.82-1.92-1.33 4.13-6.56zm-3.46 10.61-.04.1-2.51 5.44-2.11-.88-.02-.05-3.29-10.12 7.97 5.51zM27.46 96.02l-.26-.38c-1.75-2.57-2.9-5.6-3.43-9l-.03-.21.16-.13c.03-.03.07-.05.11-.08l2.82-2.87.09.09 6.58 6.39-.09.09-5.95 6.1zM44.1 78.94l-6.66-6.47 7.36-7.55 6.75 6.38-.09.09-7.36 7.55zm.06 4.18 6.81 6.62-.09.09-6.4 6.54-6.8-6.6 6.48-6.65zm-2.12-2.06-.09.09-6.39 6.55-6.67-6.48.09-.09 6.39-6.55 6.67 6.48zm-4.39 22.01c-3.08-.86-5.77-2.39-8-4.53l-.27-.26 6.25-6.41 6.79 6.6-.09.09-4.46 4.56-.22-.05zm6.49.85c-.72 0-1.4-.04-1.97-.08l-.81-.06 3.18-3.25 1.27 1.24c.56.55 1.54.53 2.09-.03.57-.58.55-1.52-.03-2.09l-1.26-1.23.09-.09 6.4-6.54 3.17 3.08c.26.26.63.4 1.03.4h.02c.4 0 .78-.16 1.04-.43.27-.28.42-.66.42-1.05s-.17-.76-.45-1.04l-3.16-3.07.09-.09 5.14-5.25c.28-.28.43-.66.42-1.05 0-.39-.16-.76-.44-1.04-.58-.57-1.52-.56-2.09.02l-5.23 5.35L46.22 81l.09-.09 7.39-7.58 4.62 4.36c.27.26.66.41 1.06.39.4-.01.77-.17 1.03-.45.27-.29.42-.66.4-1.06a1.45 1.45 0 0 0-.46-1.03l-4.58-4.34 1.7-1.74c.28-.28.42-.66.42-1.05s-.16-.76-.45-1.04c-.29-.29-.66-.45-1.05-.42-.4 0-.76.16-1.04.45l-1.73 1.78-6.75-6.38.21-.27c.46-.59.41-1.43-.12-1.94-.54-.53-1.39-.55-1.98-.04l-.26.22-1.79-1.69c-.27-.25-.65-.4-1.03-.4h-.03c-.39.01-.76.17-1.03.46-.27.29-.41.66-.4 1.06.01.39.18.76.46 1.03l1.76 1.66-.09.09-7.24 7.43-3.12-3.03c-.28-.27-.68-.43-1.05-.42-.4.01-.77.16-1.04.45-.27.28-.42.65-.42 1.05s.16.76.45 1.04l3.11 3.02-.09.09-9.73 9.98.02-.94c.16-9.17 4.19-17.68 10.52-22.21.66-.48.82-1.4.34-2.06-.48-.66-1.4-.82-2.06-.34-.42.3-.82.62-1.12.87l-.36.29-3.44-6.72 10.77 4.48c.74.31 1.57-.02 1.91-.75l3.91-8.49 4.45 9.46a1.474 1.474 0 0 0 1.97.7l10.89-5.29-2.98 7.28-.4-.35c-.43-.38-.87-.74-1.32-1.08-.31-.24-.7-.34-1.09-.29a1.484 1.484 0 0 0-1.27 1.66c.05.39.26.74.57.98 6.21 4.72 10.06 13.32 10.06 22.44.02 13.18-8.1 21.69-20.67 21.69zm64.63-18.57-.34-1.52 3.57.77c-.01.38-.03.77-.07 1.19-.04.38.12.76.42 1.06.13.13.29.23.46.31v.15h.56l.49-.01v-.1c.45-.19.77-.62.82-1.13.05-.5.07-.98.08-1.44l3.62-.88-.29 1.57c-.1.53.13 1.07.49 1.32l1.01 1.05-3.36.02c-.37.05-.7.25-.92.55l-1.78 2.43-1.87-2.41c-.23-.29-.55-.48-.99-.53l-3.37.04.94-1.03c.45-.32.65-.87.53-1.41zm-5.72 2.46c-.45.34-.65.91-.51 1.46.14.55.6.95 1.21 1.02l6.1.17 2.63 3.38c.26.34.66.54 1.11.54.43-.01.84-.22 1.1-.57l2.5-3.42 6.11-.28c.57-.08 1.02-.49 1.15-1.05s-.08-1.12-.51-1.42l-1.98-1.77c2.01.39 3.71 1.25 5 2.53 1.97 1.97 3.01 4.91 3.01 8.51 0 7.73-6.78 13.12-16.48 13.12s-16.48-5.4-16.48-13.12c0-3.73 1.05-6.74 3.03-8.69 1.33-1.32 3.05-2.12 5.11-2.4l-2.1 1.99zm.44-4.48c-2.1.5-3.94 1.49-5.39 2.92-1.41 1.39-2.44 3.18-3.08 5.25H80.73V68.75h22.76v14.58zM68.01 99.46V60.8h27.28a1.34 1.34 0 0 0 0-2.68H69.65l.15-.35c.21-.48.37-1 .46-1.54l.04-.2h30.39c.21.04.38.07.53.09l.02.11c.36 1.97 1.38 3.18 2.16 3.85l.09.07v5.91h-24.1c-.74 0-1.34.6-1.34 1.34v25.44c0 .74.6 1.34 1.34 1.34h15.05c-.12.87-.19 1.78-.19 2.73 0 .87.09 1.71.23 2.54H68.01zm2.29 4.77-.04-.21c-.1-.54-.25-1.06-.46-1.54l-.15-.35h25.53c.27.72.6 1.42.98 2.09H70.3z" class="st1"/><path d="M125.69 98.19c-.04.38.12.76.42 1.06.13.13.29.23.46.31v.15h.56l.49-.01v-.1c.45-.19.77-.62.82-1.13.42-4.22-.82-6.85-.96-7.14-.34-.68-1.18-.95-1.86-.62-.33.17-.58.45-.69.8s-.09.73.08 1.06c.01.02 1.03 2.12.68 5.62zM125.94 103.01c.82 0 1.48-.66 1.48-1.48s-.66-1.48-1.48-1.48-1.48.66-1.48 1.48.67 1.48 1.48 1.48z" class="st1"/></g></g></switch></svg>